<svg width="44" height="48" viewBox="0 0 44 48" fill="none" xmlns="http://www.w3.org/2000/svg">
<g clip-path="url(#clip0)">
<path d="M21.9993 48C25.4682 48 28.2821 45.3141 28.2821 42H15.7165C15.7165 45.3141 18.5304 48 21.9993 48ZM43.1537 33.9647C41.2562 32.0184 37.7057 29.0906 37.7057 19.5C37.7057 12.2156 32.355 6.38438 25.1402 4.95375V3C25.1402 1.34344 23.7338 0 21.9993 0C20.2648 0 18.8584 1.34344 18.8584 3V4.95375C11.6436 6.38438 6.2929 12.2156 6.2929 19.5C6.2929 29.0906 2.74246 32.0184 0.844959 33.9647C0.255674 34.5694 -0.00557523 35.2922 -0.000664518 36C0.010139 37.5375 1.27415 39 3.15201 39H40.8466C42.7245 39 43.9895 37.5375 43.9993 36C44.0042 35.2922 43.7429 34.5684 43.1537 33.9647Z" fill="#083A9B"/>
</g>
<defs>
<clipPath id="clip0">
<rect width="44" height="48" fill="white"/>
</clipPath>
</defs>
</svg>

