<svg width="80" height="80" viewBox="0 0 80 80" fill="none" xmlns="http://www.w3.org/2000/svg">
<circle cx="40" cy="40" r="40" fill="#083A9B"/>
<path d="M30.7375 33.9547C32.7422 33.9547 34.5322 34.8854 35.6778 36.389C36.6802 35.2434 37.969 34.3842 39.401 33.8831C38.0406 32.7375 37.1098 31.0191 37.1098 29.0859C37.1098 25.7208 39.9021 23 43.2673 23C46.6325 23 49.3532 25.7208 49.3532 29.0859C49.3532 31.0191 48.494 32.7375 47.1337 33.8831C50.4988 35.0286 53.0048 38.3222 53.0048 42.1169H51.2148C51.2148 38.3222 48.136 35.2434 44.3413 35.2434H42.1933C39.9021 35.2434 37.8258 36.389 36.6086 38.179C36.7518 38.7518 36.895 39.3962 36.895 40.0406C36.895 41.9737 35.9642 43.6921 34.6038 44.8377C38.0406 45.9833 40.4749 49.2052 40.4749 53H38.685C38.685 49.2768 35.6062 46.1981 31.8831 46.1981H29.6635C25.8687 46.1981 22.79 49.2768 22.79 53H21C21 49.2052 23.506 45.9833 26.9427 44.8377C25.5107 43.6921 24.6516 41.9737 24.6516 40.0406C24.6516 36.6754 27.3723 33.9547 30.7375 33.9547ZM43.2673 24.79C40.9045 24.79 38.9714 26.7232 38.9714 29.0859C38.9714 31.5203 40.9045 33.4535 43.2673 33.4535C45.6301 33.4535 47.5632 31.5203 47.5632 29.0859C47.5632 26.7232 45.6301 24.79 43.2673 24.79ZM30.7375 35.7446C28.3747 35.7446 26.4415 37.6778 26.4415 40.0406C26.4415 42.4033 28.3747 44.3365 30.7375 44.3365C33.1002 44.3365 35.0334 42.4033 35.0334 40.0406C35.0334 37.6778 33.1002 35.7446 30.7375 35.7446Z" fill="#F4F5F6"/>
</svg>
