<svg width="90" height="82" viewBox="0 0 90 82" fill="none" xmlns="http://www.w3.org/2000/svg">
<path d="M5.84024 60.8361C13.5477 66.9389 33.0763 61.331 37.0854 51.8636L30.9934 42.5248C28.3974 47.069 20.3207 56.3082 8.78206 56.9113C4.21047 57.7385 4.91601 59.8725 5.84024 60.8361Z" fill="#FFBC00" stroke="#FFBC00"/>
<path d="M45.0709 50.7079C50.5615 59.0679 70.6385 60.0589 77.1935 52.2934C77.9414 51.1349 78.2821 48.879 73.6621 49.1232C63.2354 51.0164 54.4551 45.1774 50.5015 41.212C44.8624 33.4231 47.6423 21.0702 49.7371 15.8674L49.0844 15.3292C54.1549 10.7093 49.1851 12.4455 47.0857 13.6811L49.0844 15.3292C48.7759 15.6103 48.4302 15.9149 48.0445 16.2446C41.3187 21.9931 43.2597 41.6153 45.0709 50.7079Z" fill="#FFBC00"/>
<path d="M45.0709 50.7079C50.5615 59.0679 70.6385 60.0589 77.1935 52.2934C77.9414 51.1349 78.2821 48.879 73.6621 49.1232C63.2354 51.0164 54.4551 45.1774 50.5015 41.212M45.0709 50.7079L49.5088 40.1416C49.7944 40.476 50.1262 40.8355 50.5015 41.212M45.0709 50.7079C43.2597 41.6153 41.3187 21.9931 48.0445 16.2446C54.7703 10.4962 49.3128 12.3703 47.0857 13.6811L49.7371 15.8674C47.6423 21.0702 44.8624 33.4231 50.5015 41.212" stroke="#FFBC00"/>
<path d="M51.0251 41.4216C49.549 39.7109 49.2075 39.6582 48.5879 36.9678L48.1195 42.0848C49.4295 41.9165 52.0561 42.6164 51.0251 41.4216Z" fill="#FFBC00" stroke="#FFBC00"/>
<path d="M5.83633 60.8351C13.5438 66.938 33.0724 61.33 37.0815 51.8626L30.9895 42.5238C28.3935 47.068 20.3167 56.3072 8.77816 56.9103C4.20656 57.7375 4.91211 59.8715 5.83633 60.8351Z" fill="#FFBC00" stroke="#FFBC00"/>
<path d="M50.5155 10.9766L50.5182 10.9812C51.1288 12.0334 51.0042 13.4047 50.2239 14.362C46.4537 18.9846 37.9256 32.1609 46.2978 48.4876L46.2983 48.4889L46.317 48.53C46.3333 48.5654 46.3572 48.6167 46.389 48.6826C46.4525 48.8144 46.5472 49.0049 46.6745 49.2445C46.9291 49.7235 47.314 50.3994 47.8393 51.1953C48.8892 52.786 50.5042 54.8627 52.7659 56.8049C57.3028 60.701 64.4243 64.0367 74.7186 61.8626L74.7213 61.862C75.8123 61.6253 76.9235 62.1501 77.4907 63.1753C78.2518 64.5862 77.7382 66.4076 76.3792 67.1781C72.6589 69.2816 64.9131 72.0384 56.5559 71.5937C48.2298 71.1506 39.2991 67.5343 33.0935 56.8875L33.0936 56.8874L33.0865 56.8759C33.0672 56.8448 33.0471 56.8145 33.032 56.7917C33.0248 56.7807 33.0184 56.771 33.0125 56.7621C33.005 56.7506 32.9985 56.7404 32.9923 56.7305C32.9697 56.694 32.9655 56.6814 32.9658 56.6822L32.9528 56.6423L32.9333 56.605C32.2453 55.2877 27.8052 46.1948 29.3213 36.4019C29.3359 36.3305 29.3553 36.2343 29.3551 36.1102C29.4802 34.6942 31.0868 19.7563 46.7424 9.76495C47.9909 8.97077 49.5933 9.37559 50.3454 10.676C50.3457 10.6765 50.346 10.677 50.3463 10.6775L50.5155 10.9765L50.5155 10.9766Z" fill="#FFBC00" stroke="#FFBC00"/>
<path d="M51.7557 9.52832L51.7584 9.53298C52.369 10.5851 52.2444 11.9565 51.4642 12.9138C47.6939 17.5364 39.1658 30.7126 47.538 47.0394L47.5386 47.0407L47.5573 47.0818C47.5735 47.1172 47.5975 47.1685 47.6292 47.2344C47.6927 47.3662 47.7875 47.5567 47.9148 47.7962C48.1693 48.2753 48.5542 48.9511 49.0795 49.7471C50.1294 51.3378 51.7445 53.4144 54.0061 55.3566C58.5431 59.2528 65.6645 62.5885 75.9588 60.4143L75.9615 60.4138C77.0525 60.1771 78.1637 60.7018 78.7309 61.727C79.4921 63.1379 78.9784 64.9594 77.6194 65.7299C73.8992 67.8334 66.1533 70.5901 57.7961 70.1454C49.4701 69.7024 40.5393 66.0861 34.3337 55.4392L34.3339 55.4391L34.3267 55.4276C34.3083 55.3979 34.2892 55.3689 34.2743 55.3465L34.2723 55.3435C34.2557 55.3184 34.2435 55.3 34.2326 55.2822C34.2116 55.2484 34.2064 55.2351 34.206 55.234C34.206 55.234 34.206 55.2339 34.206 55.234L34.193 55.194L34.1736 55.1568C33.4855 53.8395 29.0454 44.7466 30.5615 34.9536C30.5761 34.8823 30.5956 34.786 30.5953 34.662C30.7204 33.2459 32.327 18.3081 47.9826 8.31671C49.2311 7.52258 50.8334 7.92729 51.5855 9.22745C51.5858 9.22807 51.5862 9.22869 51.5866 9.2293L51.7558 9.5283L51.7557 9.52832Z" stroke="#FFBC00"/>
<path d="M52.3749 9.68456L52.3776 9.68923C52.9881 10.7414 52.8635 12.1128 52.0833 13.0701C48.313 17.6926 39.7849 30.8689 48.1571 47.1956L48.1577 47.1969L48.1764 47.238C48.1927 47.2734 48.2166 47.3247 48.2484 47.3906C48.3118 47.5224 48.4066 47.7129 48.5339 47.9525C48.7884 48.4315 49.1733 49.1074 49.6987 49.9033C50.7486 51.494 52.3636 53.5707 54.6253 55.5129C59.1622 59.409 66.2837 62.7447 76.578 60.5706L76.5807 60.57C77.6717 60.3333 78.7829 60.8581 79.3501 61.8832C80.1112 63.2941 79.5976 65.1156 78.2386 65.8861C74.5183 67.9896 66.7725 70.7464 58.4152 70.3017C50.0892 69.8586 41.1585 66.2423 34.9529 55.5955L34.953 55.5954L34.9459 55.5839C34.9266 55.5528 34.9065 55.5225 34.8914 55.4997C34.8749 55.4747 34.8627 55.4562 34.8517 55.4385C34.8307 55.4046 34.8256 55.3913 34.8251 55.3903C34.8251 55.3902 34.8251 55.3902 34.8251 55.3902L34.8122 55.3503L34.7927 55.313C34.1047 53.9957 29.6646 44.9028 31.1807 35.1099C31.1953 35.0386 31.2147 34.9423 31.2144 34.8182C31.3395 33.4021 32.9462 18.4643 48.6018 8.47295C49.8502 7.67882 51.4525 8.08354 52.2046 9.38373C52.205 9.38434 52.2053 9.38495 52.2057 9.38555L52.3749 9.68455L52.3749 9.68456Z" fill="#FFE145" stroke="#FFBC00"/>
<path d="M75.3001 62.2417C62.4878 67.0524 48.9848 62.2939 43.1046 49.9524C37.2653 37.6788 40.8346 21.858 50.911 11.6104" stroke="#FFBC00" stroke-width="6" stroke-miterlimit="10" stroke-linecap="round"/>
<mask id="path-10-inside-1_10251_19827" fill="white">
<path fill-rule="evenodd" clip-rule="evenodd" d="M49.4229 7.61796C49.0493 7.68818 48.6803 7.83093 48.3341 8.05116C32.3865 18.2285 30.8279 33.4842 30.7148 34.8001C30.7173 34.883 30.7052 34.9424 30.6891 35.0214L30.6891 35.0215C29.1418 44.9852 33.6517 54.2073 34.3502 55.5446C34.3772 55.6277 34.4276 55.704 34.4759 55.7769C34.4917 55.8007 34.5072 55.8241 34.5216 55.8474C47.1271 77.4745 70.9089 70.6054 78.4854 66.3214C78.9476 66.0595 79.3256 65.6964 79.6082 65.2729C70.0822 69.2992 49.7727 72.8368 38.4618 53.4308C38.4474 53.4076 38.4319 53.3841 38.4161 53.3603C38.3679 53.2874 38.3174 53.2112 38.2904 53.1281C37.5919 51.7907 33.082 42.5687 34.6293 32.605C34.6454 32.5258 34.6576 32.4665 34.655 32.3836C34.761 31.1507 36.1357 17.6825 49.4229 7.61796Z"/>
</mask>
<path fill-rule="evenodd" clip-rule="evenodd" d="M49.4229 7.61796C49.0493 7.68818 48.6803 7.83093 48.3341 8.05116C32.3865 18.2285 30.8279 33.4842 30.7148 34.8001C30.7173 34.883 30.7052 34.9424 30.6891 35.0214L30.6891 35.0215C29.1418 44.9852 33.6517 54.2073 34.3502 55.5446C34.3772 55.6277 34.4276 55.704 34.4759 55.7769C34.4917 55.8007 34.5072 55.8241 34.5216 55.8474C47.1271 77.4745 70.9089 70.6054 78.4854 66.3214C78.9476 66.0595 79.3256 65.6964 79.6082 65.2729C70.0822 69.2992 49.7727 72.8368 38.4618 53.4308C38.4474 53.4076 38.4319 53.3841 38.4161 53.3603C38.3679 53.2874 38.3174 53.2112 38.2904 53.1281C37.5919 51.7907 33.082 42.5687 34.6293 32.605C34.6454 32.5258 34.6576 32.4665 34.655 32.3836C34.761 31.1507 36.1357 17.6825 49.4229 7.61796Z" fill="#FFBC00" fill-opacity="0.52"/>
<path d="M48.3341 8.05116L47.7974 7.20739L47.7961 7.20819L48.3341 8.05116ZM49.4229 7.61796L50.0267 8.41509L49.2382 6.63517L49.4229 7.61796ZM30.7148 34.8001L29.7185 34.7145L29.7135 34.7724L29.7153 34.8304L30.7148 34.8001ZM30.6891 35.0215L29.7093 34.8216L29.7046 34.8447L29.7009 34.868L30.6891 35.0215ZM34.3502 55.5446L35.3014 55.2361L35.2755 55.1561L35.2366 55.0816L34.3502 55.5446ZM34.4759 55.7769L33.642 56.3288L33.642 56.3288L34.4759 55.7769ZM34.5216 55.8474L35.3855 55.3438L35.3787 55.3321L35.3716 55.3206L34.5216 55.8474ZM78.4854 66.3214L78.9776 67.1919L78.9784 67.1914L78.4854 66.3214ZM79.6082 65.2729L80.44 65.8279L82.2915 63.0531L79.2189 64.3518L79.6082 65.2729ZM38.4618 53.4308L39.3258 52.9273L39.3189 52.9156L39.3118 52.9041L38.4618 53.4308ZM38.4161 53.3603L37.5822 53.9123L37.5823 53.9124L38.4161 53.3603ZM38.2904 53.1281L39.2417 52.8196L39.2157 52.7396L39.1768 52.6651L38.2904 53.1281ZM34.6293 32.605L33.6495 32.405L33.6448 32.4282L33.6412 32.4515L34.6293 32.605ZM34.655 32.3836L33.6587 32.298L33.6537 32.3558L33.6555 32.4139L34.655 32.3836ZM48.8708 8.89493C49.1098 8.74293 49.3593 8.64743 49.6076 8.60075L49.2382 6.63517C48.7393 6.72893 48.2509 6.91893 47.7974 7.20739L48.8708 8.89493ZM31.7112 34.8857C31.8141 33.6883 33.3147 18.8224 48.8721 8.89413L47.7961 7.20819C31.4582 17.6346 29.8418 33.2801 29.7185 34.7145L31.7112 34.8857ZM31.6689 35.2214C31.6848 35.1436 31.7208 34.9815 31.7144 34.7699L29.7153 34.8304C29.7151 34.8227 29.7151 34.8132 29.7157 34.8026C29.7163 34.7921 29.7172 34.7837 29.7179 34.7786C29.7185 34.7742 29.7187 34.7739 29.7174 34.7812C29.7167 34.7848 29.7157 34.7896 29.7144 34.7965C29.7129 34.8036 29.7114 34.8113 29.7093 34.8215L31.6689 35.2214ZM31.6689 35.2214L31.6689 35.2214L29.7093 34.8215L29.7093 34.8216L31.6689 35.2214ZM35.2366 55.0816C34.5585 53.7833 30.1816 44.806 31.6773 35.1749L29.7009 34.868C28.102 45.1645 32.745 54.6312 33.4638 56.0076L35.2366 55.0816ZM35.3098 55.2249C35.3036 55.2155 35.2986 55.2081 35.2939 55.2009C35.2893 55.1939 35.2856 55.1882 35.2826 55.1834C35.2762 55.1735 35.2738 55.1693 35.2735 55.1687C35.2733 55.1683 35.2765 55.174 35.2814 55.1845C35.2864 55.1952 35.2939 55.2127 35.3014 55.2361L33.399 55.8531C33.4754 56.0886 33.6087 56.2785 33.642 56.3288L35.3098 55.2249ZM35.3716 55.3206C35.3479 55.2824 35.324 55.2463 35.3098 55.2249L33.642 56.3288C33.6594 56.355 33.6664 56.3658 33.6716 56.3741L35.3716 55.3206ZM77.9932 65.4509C74.3408 67.5161 66.6888 70.2413 58.4425 69.8025C50.2586 69.367 41.494 65.8239 35.3855 55.3438L33.6576 56.3509C40.1547 67.4979 49.5838 71.3339 58.3362 71.7996C67.0264 72.2621 75.0534 69.4107 78.9776 67.1919L77.9932 65.4509ZM78.7763 64.7179C78.5761 65.018 78.3118 65.2704 77.9923 65.4514L78.9784 67.1914C79.5835 66.8485 80.0751 66.3748 80.44 65.8279L78.7763 64.7179ZM79.2189 64.3518C74.5672 66.3179 67.2927 68.1553 59.8383 67.148C52.4335 66.1474 44.8122 62.3402 39.3258 52.9273L37.5978 53.9344C43.4224 63.9274 51.6113 68.0545 59.5704 69.13C67.48 70.1988 75.1232 68.2542 79.9975 66.194L79.2189 64.3518ZM39.3118 52.9041C39.2881 52.8659 39.2642 52.8298 39.2499 52.8083L37.5823 53.9124C37.5996 53.9385 37.6067 53.9493 37.6118 53.9576L39.3118 52.9041ZM39.25 52.8084C39.2438 52.799 39.2388 52.7915 39.2341 52.7843C39.2295 52.7773 39.2259 52.7717 39.2228 52.7668C39.2164 52.757 39.214 52.7528 39.2137 52.7522C39.2135 52.7518 39.2167 52.7575 39.2217 52.768C39.2266 52.7787 39.2341 52.7962 39.2417 52.8196L37.3392 53.4366C37.4156 53.6721 37.5489 53.8619 37.5822 53.9123L39.25 52.8084ZM39.1768 52.6651C38.4987 51.3668 34.1218 42.3895 35.6175 32.7584L33.6412 32.4515C32.0422 42.7479 36.6852 52.2147 37.4041 53.591L39.1768 52.6651ZM35.6091 32.8049C35.625 32.7271 35.661 32.565 35.6546 32.3533L33.6555 32.4139C33.6553 32.4062 33.6553 32.3967 33.6559 32.3861C33.6565 32.3756 33.6575 32.3671 33.6581 32.3621C33.6587 32.3577 33.6589 32.3574 33.6576 32.3647C33.6569 32.3683 33.6559 32.3731 33.6546 32.38C33.6531 32.3871 33.6516 32.3948 33.6495 32.405L35.6091 32.8049ZM35.6514 32.4692C35.7477 31.3487 37.0723 18.2276 50.0267 8.41509L48.8191 6.82082C35.199 17.1375 33.7743 30.9528 33.6587 32.298L35.6514 32.4692Z" fill="#FFBC00" mask="url(#path-10-inside-1_10251_19827)"/>
<path d="M51.5131 42.1615C49.9622 40.6065 48.8931 38.4681 48.6985 37.9683L48.6185 39.0633L47.741 41.5789C49.6446 42.4211 53.064 43.7165 51.5131 42.1615Z" fill="#FFBC00" stroke="#FFBC00"/>
</svg>
