<svg width="100" height="100" viewBox="0 0 100 100" fill="none" xmlns="http://www.w3.org/2000/svg">
  <rect width="100" height="100" rx="8" fill="#083A9B"/>
  <path d="M17.9246 69.2299L18.2543 68.9255C19.5988 67.6572 21.6027 67.4289 23.2008 68.3167C29.7707 71.9695 47.8317 79.4526 65.5375 64.4103C65.5375 64.4103 85.019 49.8245 74.6694 24.5341C73.9845 22.8853 74.4411 20.9828 75.7602 19.7906C77.5612 18.1925 80.3262 18.3954 81.8482 20.2472C89.0269 28.9986 103.46 58.2208 79.9964 80.4419C79.8949 80.5433 79.7935 80.6702 79.6666 80.7463C78.1954 82.0146 67.9727 90.3602 55.3148 90.9943C55.2133 90.9943 55.1372 90.9943 55.0358 91.0197C53.3869 91.2226 34.2099 93.252 17.6709 75.1403C16.1235 73.4407 16.2504 70.8026 17.9246 69.2299Z" fill="#FFBC00"/>
  <path d="M66.1437 20.269C66.169 20.4719 70.0755 19.6602 70.0755 19.6602C70.0755 19.6602 69.9486 16.0328 73.1702 14.2317C73.1702 14.2317 77.1781 12.2531 79.5625 14.0795L82.2768 10.8326C82.2768 10.8326 77.8123 6.44422 70.9887 9.89406C70.9887 9.89406 65.3319 12.4307 66.1437 20.269Z" fill="#FFE145"/>
  <path d="M8.35866 73.1329C8.43476 73.3105 11.8846 71.2811 11.8846 71.2811C11.8846 71.2811 10.5909 67.9074 13.0515 65.1424C13.0515 65.1424 16.1969 61.9716 19.0633 62.9102L20.5853 58.953C20.5853 58.953 14.9539 56.2388 9.60162 61.718C9.57625 61.7433 5.03565 66.0049 8.35866 73.1329Z" fill="#FFE145"/>
  <path d="M15.867 67.1464L16.1967 66.842C17.5411 65.5737 19.5451 65.3454 21.1432 66.2332C27.7131 69.886 45.7741 77.3691 63.4799 62.3268C63.4799 62.3268 82.9613 47.741 72.6118 22.4506C71.9269 20.8018 72.3835 18.8993 73.7026 17.7071C75.5036 16.109 78.2686 16.3119 79.7906 18.1637C86.9693 26.9151 101.403 56.1373 77.9388 78.3584C77.8373 78.4598 77.7359 78.5867 77.609 78.6628C76.1378 79.9311 65.9151 88.2767 53.2572 88.9108C53.1557 88.9108 53.0796 88.9108 52.9781 88.9362C51.3293 89.1391 32.1522 91.1685 15.6133 73.0568C14.0659 71.3572 14.1928 68.7191 15.867 67.1464Z" fill="#FFE145"/>
  <path d="M78.5732 23.5918C87.4261 40.7649 84.4328 61.3879 70.253 73.0057C56.1492 84.5475 35.5262 83.4821 20.4585 71.636" stroke="#FFBC00" stroke-width="6" stroke-miterlimit="10" stroke-linecap="round"/>
</svg>
