<svg width="84" height="89" viewBox="0 0 84 89" fill="none" xmlns="http://www.w3.org/2000/svg">
<path d="M3.90137 32.4453H1.5C0.671387 32.4453 0 31.7739 0 30.9453C0 30.1167 0.671387 29.4453 1.5 29.4453H3.90137V27.0439C3.90137 26.2153 4.57275 25.5439 5.40137 25.5439C6.22998 25.5439 6.90137 26.2153 6.90137 27.0439V29.4453H9.30225C10.1309 29.4453 10.8022 30.1167 10.8022 30.9453C10.8022 31.7739 10.1309 32.4453 9.30225 32.4453H6.90137V34.8462C6.90137 35.6748 6.22998 36.3462 5.40137 36.3462C4.57275 36.3462 3.90137 35.6748 3.90137 34.8462V32.4453V32.4453ZM80.0104 32.6204C80.9355 32.6204 81.6855 31.8704 81.6855 30.9453C81.6855 30.0201 80.9355 29.2701 80.0104 29.2701C79.0853 29.2701 78.3353 30.0201 78.3353 30.9453C78.3353 31.8704 79.0853 32.6204 80.0104 32.6204ZM52.7686 81.2705H50.3672V78.8691C50.3672 78.041 49.6953 77.3691 48.8672 77.3691C48.0391 77.3691 47.3672 78.041 47.3672 78.8691V81.2705H44.9658C44.1377 81.2705 43.4658 81.9424 43.4658 82.7705C43.4658 83.5986 44.1377 84.2705 44.9658 84.2705H47.3672V86.6719C47.3672 87.5 48.0391 88.1719 48.8672 88.1719C49.6953 88.1719 50.3672 87.5 50.3672 86.6719V84.2705H52.7686C53.5967 84.2705 54.2686 83.5986 54.2686 82.7705C54.2686 81.9424 53.5967 81.2705 52.7686 81.2705ZM40.5977 67.4922C40.5977 76.8662 32.9722 84.4922 23.5981 84.4922C14.2241 84.4922 6.59815 76.8662 6.59815 67.4922C6.59815 66.6641 7.26953 65.9922 8.09815 65.9922H39.0981C39.9268 65.9922 40.5977 66.6641 40.5977 67.4922ZM16.8578 68.9922C17.5454 72.0822 20.3041 74.4014 23.5981 74.4014C26.8922 74.4014 29.6505 72.0822 30.338 68.9922H16.8578ZM37.5186 68.9922H33.3809C32.6542 73.7449 28.5508 77.4014 23.5981 77.4014C18.6454 77.4014 14.5417 73.7449 13.8149 68.9922H9.67774C10.4287 76.0098 16.3853 81.4922 23.5981 81.4922C30.811 81.4922 36.7676 76.0098 37.5186 68.9922ZM8.09815 56.9141C4.62158 56.9141 1.79346 54.0859 1.79346 50.6094C1.79346 47.1328 4.62158 44.3047 8.09815 44.3047C11.5742 44.3047 14.4023 47.1328 14.4023 50.6094C14.4023 54.0859 11.5742 56.9141 8.09815 56.9141ZM8.09815 53.9141C9.91992 53.9141 11.4023 52.4316 11.4023 50.6094C11.4023 48.7871 9.91992 47.3047 8.09815 47.3047C6.27588 47.3047 4.79346 48.7871 4.79346 50.6094C4.79346 52.4316 6.27588 53.9141 8.09815 53.9141ZM57.0625 20.7397C60.5391 20.7397 63.3672 23.5679 63.3672 27.0439C63.3672 30.5205 60.5391 33.3486 57.0625 33.3486C53.5859 33.3486 50.7578 30.5205 50.7578 27.0439C50.7578 23.5679 53.5859 20.7397 57.0625 20.7397ZM57.0625 23.7397C55.2402 23.7397 53.7578 25.2222 53.7578 27.0439C53.7578 28.8662 55.2402 30.3486 57.0625 30.3486C58.8848 30.3486 60.3672 28.8662 60.3672 27.0439C60.3672 25.2222 58.8848 23.7397 57.0625 23.7397ZM50.1611 7.3125H52.5625V9.71338C52.5625 10.542 53.2344 11.2134 54.0625 11.2134C54.8906 11.2134 55.5625 10.542 55.5625 9.71338V7.3125H57.9639C58.792 7.3125 59.4639 6.64111 59.4639 5.8125C59.4639 4.98389 58.792 4.3125 57.9639 4.3125H55.5625V1.91113C55.5625 1.08252 54.8906 0.411133 54.0625 0.411133C53.2344 0.411133 52.5625 1.08252 52.5625 1.91113V4.3125H50.1611C49.333 4.3125 48.6611 4.98389 48.6611 5.8125C48.6611 6.64111 49.333 7.3125 50.1611 7.3125ZM83.8232 56.6162C83.8252 61.6318 81.6924 66.6406 77.9707 70.3555C74.3652 73.9561 69.708 75.9375 64.8564 75.9375C64.8311 75.9375 64.8096 75.9375 64.7861 75.9375C59.9385 75.9375 55.2812 73.9561 51.6748 70.3545C47.9541 66.6387 45.8213 61.6309 45.8232 56.6143C45.8194 47.0197 53.7515 39.7487 64.3453 39.5152C65.0638 37.8506 65.9164 37.1505 66.084 37.0269C66.75 36.5347 67.6895 36.6753 68.1816 37.3413C68.665 37.9951 68.5381 38.9116 67.9043 39.4111C67.8843 39.4293 67.7915 39.5211 67.6626 39.6939C77.0518 40.8775 83.8268 47.7515 83.8232 56.6162ZM80.8232 56.6162C80.8232 56.6152 80.8232 56.6152 80.8232 56.6143C80.8269 48.968 74.9202 43.2736 66.5473 42.5685C66.4072 43.3011 66.3135 44.187 66.3033 45.2436C66.7171 45.1977 67.0275 45.139 67.2158 45.0889C67.4902 44.7861 67.8867 44.5967 68.3271 44.5967C69.1553 44.5967 69.8271 45.2686 69.8271 46.0967C69.8271 47.6133 68.2373 48.3203 64.8232 48.3203C61.4092 48.3203 59.8193 47.6133 59.8193 46.0967C59.8193 45.2686 60.4912 44.5967 61.3193 44.5967C61.7598 44.5967 62.1563 44.7861 62.4307 45.0889C62.6125 45.1373 62.9084 45.1938 63.301 45.239C63.3092 44.2286 63.3898 43.3428 63.5117 42.5491C54.9261 43.0975 48.8195 48.8412 48.8232 56.6143C48.8213 60.8418 50.6338 65.0752 53.7939 68.2314C56.834 71.2666 60.7393 72.9375 64.792 72.9375C64.8018 72.9375 64.8105 72.9375 64.8203 72.9375C64.8301 72.9375 64.8408 72.9375 64.8506 72.9375C68.9082 72.9375 72.8115 71.2676 75.8516 68.2324C79.0127 65.0762 80.8252 60.8418 80.8232 56.6162ZM41.9629 11.8633C41.6406 14.5439 39.564 16.7642 36.9121 17.2627C36.1948 17.397 35.479 17.4097 34.7856 17.3047L34.6677 20.7227H35.7837C36.8086 20.7227 37.7939 21.1563 38.4863 21.9121C39.1787 22.6685 39.5244 23.688 39.4346 24.709L36.8916 53.5869C36.5757 57.1807 33.6167 59.8906 30.0088 59.8906C26.4014 59.8906 23.4424 57.1807 23.126 53.5869L20.5835 24.709C20.4937 23.6875 20.8394 22.6685 21.5317 21.9121C22.2241 21.1562 23.209 20.7227 24.2344 20.7227H25.3499L25.2319 17.3047C24.5396 17.4097 23.8267 17.3975 23.1118 17.2642C20.4609 16.769 18.3818 14.5518 18.0562 11.8721C17.6709 8.69873 19.665 5.80664 22.7261 5.02832C23.5796 2.09668 26.5884 0 30.0088 0C33.4292 0 36.438 2.09668 37.292 5.02832C40.3491 5.80566 42.3438 8.69434 41.9629 11.8633ZM24.2344 23.7227C23.9795 23.7227 23.8179 23.8579 23.7441 23.9385C23.6699 24.019 23.5498 24.1924 23.5718 24.4463L25.0129 40.814H28.0889C28.9175 40.814 29.5889 41.4854 29.5889 42.314C29.5889 43.1426 28.9175 43.814 28.0889 43.814H25.277L26.1143 53.3232C26.2935 55.3574 27.9678 56.8906 30.0088 56.8906C32.0503 56.8906 33.7246 55.3574 33.9033 53.3232L35.7993 31.7935H31.9375C31.1089 31.7935 30.4375 31.1221 30.4375 30.2935C30.4375 29.4648 31.1089 28.7935 31.9375 28.7935H36.0635L36.4463 24.4463C36.4687 24.1924 36.3477 24.019 36.2739 23.9385C36.2002 23.8579 36.0381 23.7227 35.7837 23.7227H24.2344V23.7227ZM36.4033 7.90088C36.4028 7.90088 36.4028 7.90088 36.4023 7.90088C35.4399 7.7002 34.6743 6.96094 34.4512 6.01807C34.0376 4.26953 32.1694 3 30.0088 3C27.8481 3 25.98 4.26904 25.5669 6.01807C25.3438 6.96094 24.5781 7.7002 23.6157 7.90088C21.9365 8.25098 20.8271 9.80225 21.0347 11.5103C21.2012 12.8823 22.3066 14.062 23.6626 14.3149C24.6587 14.502 25.4365 14.2129 25.9155 13.9375C26.3726 13.6758 26.9316 13.6719 27.3911 13.9282C27.8506 14.1836 28.1426 14.6616 28.1606 15.187L28.3517 20.7227H31.6658L31.8569 15.187C31.875 14.6616 32.167 14.1836 32.6265 13.9282C33.0869 13.6724 33.647 13.6763 34.1021 13.9375C34.7905 14.3325 35.5703 14.4624 36.3579 14.3145C37.7148 14.0591 38.8193 12.8779 38.9839 11.5054C39.189 9.79932 38.0796 8.25 36.4033 7.90088Z" fill="#083A9B"/>
</svg>
