<svg width="70" height="60" viewBox="0 0 70 60" fill="none" xmlns="http://www.w3.org/2000/svg">
<path d="M68.25 24.375H61.25V16.875C61.25 15.8438 60.4625 15 59.5 15H56C55.0375 15 54.25 15.8438 54.25 16.875V24.375H47.25C46.2875 24.375 45.5 25.2188 45.5 26.25V30C45.5 31.0312 46.2875 31.875 47.25 31.875H54.25V39.375C54.25 40.4062 55.0375 41.25 56 41.25H59.5C60.4625 41.25 61.25 40.4062 61.25 39.375V31.875H68.25C69.2125 31.875 70 31.0312 70 30V26.25C70 25.2188 69.2125 24.375 68.25 24.375ZM24.5 30C32.2328 30 38.5 23.2852 38.5 15C38.5 6.71484 32.2328 0 24.5 0C16.7672 0 10.5 6.71484 10.5 15C10.5 23.2852 16.7672 30 24.5 30ZM34.3 33.75H32.4734C30.0453 34.9453 27.3438 35.625 24.5 35.625C21.6562 35.625 18.9656 34.9453 16.5266 33.75H14.7C6.58437 33.75 0 40.8047 0 49.5V54.375C0 57.4805 2.35156 60 5.25 60H43.75C46.6484 60 49 57.4805 49 54.375V49.5C49 40.8047 42.4156 33.75 34.3 33.75Z" fill="#FFE145"/>
</svg>
