<svg width="24" height="24" viewBox="0 0 24 24" fill="none" xmlns="http://www.w3.org/2000/svg">
<g id="jam:write">
<path id="Vector" d="M7.72 16.4563L9.481 15.9483L20.084 5.21833C20.1676 5.13263 20.2142 5.01747 20.2136 4.89772C20.2131 4.77797 20.1654 4.66325 20.081 4.57833L19.446 3.93633C19.405 3.89417 19.3559 3.8606 19.3018 3.83759C19.2477 3.81458 19.1895 3.80258 19.1306 3.8023C19.0718 3.80203 19.0135 3.81347 18.9591 3.83597C18.9048 3.85846 18.8554 3.89156 18.814 3.93333L8.239 14.6353L7.719 16.4553L7.72 16.4563ZM20.703 2.66433L21.338 3.30733C22.214 4.19433 22.222 5.62533 21.354 6.50333L10.428 17.5613L6.664 18.6453C6.4342 18.7097 6.18826 18.6802 5.98016 18.5634C5.77206 18.4466 5.6188 18.252 5.554 18.0223C5.50578 17.8572 5.50509 17.6818 5.552 17.5163L6.647 13.6763L17.544 2.64733C17.7512 2.43869 17.9979 2.2734 18.2696 2.16109C18.5414 2.04878 18.8328 1.9917 19.1269 1.99319C19.4209 1.99468 19.7117 2.05471 19.9823 2.16976C20.2529 2.28482 20.4979 2.4526 20.703 2.66333V2.66433ZM9.184 3.81733C9.68 3.81733 10.082 4.22433 10.082 4.72633C10.0828 4.845 10.0602 4.96266 10.0155 5.07259C9.97076 5.18251 9.90481 5.28255 9.82141 5.36697C9.73801 5.45139 9.63879 5.51854 9.52942 5.56459C9.42004 5.61064 9.30267 5.63468 9.184 5.63533H5.592C4.6 5.63533 3.796 6.44934 3.796 7.45233V18.3583C3.796 19.3623 4.6 20.1763 5.592 20.1763H16.368C17.36 20.1763 18.165 19.3623 18.165 18.3583V14.7233C18.165 14.2213 18.567 13.8143 19.063 13.8143C19.559 13.8143 19.961 14.2213 19.961 14.7243V18.3583C19.961 20.3663 18.352 21.9943 16.368 21.9943H5.592C3.608 21.9943 2 20.3663 2 18.3583V7.45233C2 5.44533 3.608 3.81733 5.592 3.81733H9.184Z" fill="#131313"/>
</g>
</svg>
