<svg width="22" height="24" viewBox="0 0 22 24" fill="none" xmlns="http://www.w3.org/2000/svg">
<g clip-path="url(#clip0_8071:17)">
<path d="M21.6992 20.7516L17.4152 16.0781C17.2219 15.8672 16.9598 15.75 16.6848 15.75H15.9844C17.1703 14.0953 17.875 12.0141 17.875 9.75C17.875 4.36406 13.8746 0 8.9375 0C4.00039 0 0 4.36406 0 9.75C0 15.1359 4.00039 19.5 8.9375 19.5C11.0129 19.5 12.9207 18.7313 14.4375 17.4375V18.2016C14.4375 18.5016 14.5449 18.7875 14.7383 18.9984L19.0223 23.6719C19.4262 24.1125 20.0793 24.1125 20.4789 23.6719L21.6949 22.3453C22.0988 21.9047 22.0988 21.1922 21.6992 20.7516ZM8.9375 15.75C5.89961 15.75 3.4375 13.0688 3.4375 9.75C3.4375 6.43594 5.89531 3.75 8.9375 3.75C11.9754 3.75 14.4375 6.43125 14.4375 9.75C14.4375 13.0641 11.9797 15.75 8.9375 15.75Z" fill="#083A9B"/>
</g>
<defs>
<clipPath id="clip0_8071:17">
<rect width="22" height="24" fill="white"/>
</clipPath>
</defs>
</svg>
