<svg width="44" height="48" viewBox="0 0 44 48" fill="none" xmlns="http://www.w3.org/2000/svg">
<g clip-path="url(#clip0)">
<path d="M11.9977 3.32838C11.9019 3.2235 11.788 3.14029 11.6627 3.08351C11.5373 3.02673 11.4029 2.9975 11.2672 2.9975C11.1315 2.9975 10.9971 3.02673 10.8718 3.08351C10.7464 3.14029 10.6326 3.2235 10.5368 3.32838L5.06425 9.2637L3.11347 7.18995C3.01766 7.08507 2.90382 7.00185 2.77847 6.94507C2.65312 6.88829 2.51873 6.85906 2.383 6.85906C2.24727 6.85906 2.11288 6.88829 1.98753 6.94507C1.86218 7.00185 1.74834 7.08507 1.65253 7.18995L0.303313 8.6637C0.207173 8.76821 0.130891 8.89241 0.0788422 9.02915C0.0267929 9.1659 0 9.31251 0 9.46057C0 9.60864 0.0267929 9.75525 0.0788422 9.89199C0.130891 10.0287 0.207173 10.1529 0.303313 10.2574L4.39308 14.7012C4.59722 14.9129 4.86811 15.0309 5.14976 15.0309C5.43141 15.0309 5.7023 14.9129 5.90644 14.7012L7.2462 13.2368L13.4509 6.46901C13.6442 6.25795 13.7534 5.97224 13.7549 5.67387C13.7563 5.3755 13.6499 5.08855 13.4586 4.87526L11.9977 3.32838ZM11.9977 18.2524C11.9019 18.1476 11.788 18.0644 11.6627 18.0076C11.5373 17.9508 11.4029 17.9216 11.2672 17.9216C11.1315 17.9216 10.9971 17.9508 10.8718 18.0076C10.7464 18.0644 10.6326 18.1476 10.5368 18.2524L5.06425 24.2262L3.11347 22.1543C3.01766 22.0494 2.90382 21.9662 2.77847 21.9094C2.65312 21.8527 2.51873 21.8234 2.383 21.8234C2.24727 21.8234 2.11288 21.8527 1.98753 21.9094C1.86218 21.9662 1.74834 22.0494 1.65253 22.1543L0.303313 23.6253C0.207173 23.7298 0.130891 23.854 0.0788422 23.9907C0.0267929 24.1275 0 24.2741 0 24.4221C0 24.5702 0.0267929 24.7168 0.0788422 24.8536C0.130891 24.9903 0.207173 25.1145 0.303313 25.219L4.38277 29.6721C4.58676 29.8838 4.85751 30.0018 5.13902 30.0018C5.42053 30.0018 5.69127 29.8838 5.89527 29.6721L7.24449 28.2012L13.4492 21.4306C13.6418 21.221 13.7506 20.9369 13.7521 20.6401C13.7535 20.3434 13.6474 20.058 13.4569 19.8462L11.9977 18.2524ZM5.49995 34.5003C3.22347 34.5003 1.32425 36.5159 1.32425 39.0003C1.32425 41.4846 3.22519 43.5003 5.49995 43.5003C6.59397 43.5003 7.64318 43.0262 8.41677 42.1822C9.19036 41.3383 9.62495 40.1937 9.62495 39.0003C9.62495 37.8068 9.19036 36.6622 8.41677 35.8183C7.64318 34.9744 6.59397 34.5003 5.49995 34.5003ZM42.625 36.0003H17.875C17.5103 36.0003 17.1605 36.1583 16.9027 36.4396C16.6448 36.7209 16.5 37.1024 16.5 37.5003V40.5003C16.5 40.8981 16.6448 41.2796 16.9027 41.5609C17.1605 41.8422 17.5103 42.0003 17.875 42.0003H42.625C42.9896 42.0003 43.3394 41.8422 43.5972 41.5609C43.8551 41.2796 44 40.8981 44 40.5003V37.5003C44 37.1024 43.8551 36.7209 43.5972 36.4396C43.3394 36.1583 42.9896 36.0003 42.625 36.0003ZM42.625 6.00026H17.875C17.5103 6.00026 17.1605 6.1583 16.9027 6.4396C16.6448 6.7209 16.5 7.10244 16.5 7.50026V10.5003C16.5 10.8981 16.6448 11.2796 16.9027 11.5609C17.1605 11.8422 17.5103 12.0003 17.875 12.0003H42.625C42.9896 12.0003 43.3394 11.8422 43.5972 11.5609C43.8551 11.2796 44 10.8981 44 10.5003V7.50026C44 7.10244 43.8551 6.7209 43.5972 6.4396C43.3394 6.1583 42.9896 6.00026 42.625 6.00026ZM42.625 21.0003H17.875C17.5103 21.0003 17.1605 21.1583 16.9027 21.4396C16.6448 21.7209 16.5 22.1024 16.5 22.5003V25.5003C16.5 25.8981 16.6448 26.2796 16.9027 26.5609C17.1605 26.8422 17.5103 27.0003 17.875 27.0003H42.625C42.9896 27.0003 43.3394 26.8422 43.5972 26.5609C43.8551 26.2796 44 25.8981 44 25.5003V22.5003C44 22.1024 43.8551 21.7209 43.5972 21.4396C43.3394 21.1583 42.9896 21.0003 42.625 21.0003Z" fill="#083A9B"/>
</g>
<defs>
<clipPath id="clip0">
<rect width="44" height="48" fill="white"/>
</clipPath>
</defs>
</svg>
