<svg width="25" height="25" viewBox="0 0 25 25" fill="none" xmlns="http://www.w3.org/2000/svg">
<g id="ph:trash-bold">
<path id="Vector" d="M21.0938 4.6875H17.5781V3.51562C17.5756 2.79122 17.2866 2.09721 16.7744 1.58497C16.2622 1.07273 15.5682 0.783823 14.8438 0.78125H10.1562C9.43184 0.783823 8.73784 1.07273 8.2256 1.58497C7.71336 2.09721 7.42445 2.79122 7.42188 3.51562V4.6875H3.90625C3.59545 4.6875 3.29738 4.81097 3.07761 5.03073C2.85784 5.2505 2.73438 5.54857 2.73438 5.85938C2.73438 6.17018 2.85784 6.46825 3.07761 6.68802C3.29738 6.90778 3.59545 7.03125 3.90625 7.03125H4.29688V20.3125C4.29944 20.8297 4.50604 21.325 4.87177 21.6907C5.2375 22.0565 5.73279 22.2631 6.25 22.2656H18.75C19.2672 22.2631 19.7625 22.0565 20.1282 21.6907C20.494 21.325 20.7006 20.8297 20.7031 20.3125V7.03125H21.0938C21.4046 7.03125 21.7026 6.90778 21.9224 6.68802C22.1422 6.46825 22.2656 6.17018 22.2656 5.85938C22.2656 5.54857 22.1422 5.2505 21.9224 5.03073C21.7026 4.81097 21.4046 4.6875 21.0938 4.6875ZM9.76562 3.51562C9.76562 3.41202 9.80678 3.31267 9.88004 3.23941C9.95329 3.16616 10.0526 3.125 10.1562 3.125H14.8438C14.9474 3.125 15.0467 3.16616 15.12 3.23941C15.1932 3.31267 15.2344 3.41202 15.2344 3.51562V4.6875H9.76562V3.51562ZM18.3594 19.9219H6.64062V7.03125H18.3594V19.9219ZM11.3281 10.1562V16.4062C11.3281 16.7171 11.2047 17.0151 10.9849 17.2349C10.7651 17.4547 10.4671 17.5781 10.1562 17.5781C9.84545 17.5781 9.54738 17.4547 9.32761 17.2349C9.10784 17.0151 8.98438 16.7171 8.98438 16.4062V10.1562C8.98438 9.84545 9.10784 9.54738 9.32761 9.32761C9.54738 9.10784 9.84545 8.98438 10.1562 8.98438C10.4671 8.98438 10.7651 9.10784 10.9849 9.32761C11.2047 9.54738 11.3281 9.84545 11.3281 10.1562ZM16.0156 10.1562V16.4062C16.0156 16.7171 15.8922 17.0151 15.6724 17.2349C15.4526 17.4547 15.1546 17.5781 14.8438 17.5781C14.5329 17.5781 14.2349 17.4547 14.0151 17.2349C13.7953 17.0151 13.6719 16.7171 13.6719 16.4062V10.1562C13.6719 9.84545 13.7953 9.54738 14.0151 9.32761C14.2349 9.10784 14.5329 8.98438 14.8438 8.98438C15.1546 8.98438 15.4526 9.10784 15.6724 9.32761C15.8922 9.54738 16.0156 9.84545 16.0156 10.1562Z" fill="black"/>
</g>
</svg>
