<svg width="386" height="494" viewBox="0 0 386 494" fill="none" xmlns="http://www.w3.org/2000/svg">
<path d="M384.226 132.291C383.669 129.941 371.989 133.465 371.989 133.465C375.827 131.175 379.22 128.238 382.001 124.654C379.776 122.892 369.208 128.179 369.208 128.179C371.989 126.417 375.326 119.368 375.326 119.368C368.986 119.955 359.586 127.415 358.696 128.12C358.807 127.826 358.974 126.24 359.197 119.368C359.475 109.617 354.747 121.13 354.747 121.13C354.747 121.13 350.854 127.004 346.404 134.64C343.679 139.281 340.23 143.451 336.226 146.858L318.094 165.361C318.094 165.361 306.191 177.168 300.741 175.171C296.347 173.585 292.954 165.479 292.954 165.479C292.954 165.479 291.452 179.106 285.056 189.268C278.66 199.43 272.986 207.007 272.986 207.007C272.986 207.007 281.774 218.168 293.009 218.99C304.189 219.813 314.479 210.179 314.479 210.179L344.346 168.944C344.346 168.944 355.359 154.612 357.028 152.262C358.696 149.913 363.702 145.801 370.932 145.213C378.163 144.626 382.056 141.689 382.056 141.689C382.056 139.927 374.826 139.339 374.826 139.339C374.826 139.339 384.782 134.64 384.226 132.291Z" fill="#FECE2F"/>
<path d="M129.597 448.074C129.597 448.074 129.041 459.352 125.648 464.051L141.444 474.448L157.685 468.574L159.354 450.071L144.392 447.369L129.597 448.074Z" fill="#FECE2F"/>
<path d="M251.35 108.09C251.35 108.09 265.588 119.074 270.705 126.534C275.822 133.994 293.12 164.538 293.12 164.538C293.12 164.538 291.062 179.047 283.998 191.089C276.935 203.13 266.089 214.761 266.089 214.761L246.066 198.02L247.512 226.391L250.849 264.396C250.849 264.396 230.548 268.449 229.38 268.625C228.212 268.801 214.474 269.447 214.474 269.447L199.457 267.568C199.457 267.568 186.72 264.337 177.709 259.285C168.699 254.234 148.898 244.248 141.557 241.899C134.215 239.549 122.201 237.141 122.201 237.141L137.385 189.503L130.488 197.256C130.488 197.256 117.195 185.097 110.465 175.464C103.735 165.831 96.2266 153.848 96.2266 153.848L114.637 130.704L135.105 111.614L152.235 99.8074L168.866 92.5237L182.326 88.4707C182.326 88.4707 181.825 104.859 194.673 116.02C207.521 127.18 226.821 124.478 226.821 124.478C226.821 124.478 243.174 121.6 251.35 108.09Z" fill="white"/>
<path d="M183.661 96.9291L182.549 88.823C182.493 88.5293 182.382 88.2944 182.16 88.1182C181.937 87.942 181.659 87.8832 181.381 87.9419C171.536 90.5852 161.914 94.3446 152.848 99.1612C137.497 107.267 110.243 135.638 109.075 136.872L109.02 136.931L95.393 153.789C95.115 154.141 95.0593 154.611 95.2818 154.964L98.9527 161.425C99.1196 161.719 99.3977 161.895 99.7314 161.954H99.787C100.065 161.954 100.399 161.778 100.566 161.543C100.733 161.249 120.533 133.465 140.334 118.839C160.134 104.213 182.66 98.1039 182.883 98.0452C183.383 97.9864 183.717 97.5165 183.661 96.9291Z" fill="#FECE2F"/>
<path d="M249.125 241.018L247.346 219.402V209.122C247.346 208.711 247.123 208.359 246.789 208.183C246.456 208.006 246.066 208.065 245.788 208.3L231.717 220.812C231.494 220.988 231.383 221.223 231.383 221.516C231.383 221.81 231.438 222.045 231.605 222.28L247.457 241.723C247.624 241.958 247.902 242.075 248.18 242.075C248.291 242.075 248.458 242.075 248.569 242.017C248.903 241.84 249.125 241.429 249.125 241.018Z" fill="#FECE2F"/>
<path d="M193.729 198.196C189.001 198.196 185.219 202.249 185.219 207.183C185.219 212.118 189.056 216.171 193.729 216.171C198.401 216.171 202.238 212.118 202.238 207.183C202.238 202.191 198.401 198.196 193.729 198.196Z" fill="#1A1A1A"/>
<path d="M145.283 165.478C140.556 165.478 136.773 161.425 136.773 156.491C136.773 151.557 140.611 147.504 145.283 147.504C149.955 147.504 153.793 151.557 153.793 156.491C153.793 161.425 149.955 165.478 145.283 165.478ZM145.283 149.501C141.668 149.501 138.665 152.614 138.665 156.491C138.665 160.309 141.612 163.481 145.283 163.481C148.954 163.481 151.902 160.368 151.902 156.491C151.846 152.614 148.899 149.501 145.283 149.501Z" fill="#FECE2F"/>
<path d="M174.706 124.244C169.534 124.244 165.307 119.838 165.307 114.317C165.307 108.795 169.478 104.39 174.706 104.39C179.935 104.39 184.106 108.795 184.106 114.317C184.05 119.779 179.879 124.244 174.706 124.244ZM174.706 106.504C170.59 106.504 167.253 110.029 167.253 114.375C167.253 118.722 170.59 122.246 174.706 122.246C178.822 122.246 182.159 118.722 182.159 114.375C182.159 110.029 178.822 106.504 174.706 106.504Z" fill="#1A1A1A"/>
<path d="M262.863 165.713C259.192 165.713 256.244 168.826 256.244 172.703C256.244 176.58 259.192 179.693 262.863 179.693C266.534 179.693 269.482 176.58 269.482 172.703C269.482 168.826 266.478 165.713 262.863 165.713Z" fill="#FECE2F"/>
<path d="M151.457 237.846C148.064 237.846 144.727 239.138 142.168 241.547C141.779 241.899 141.723 242.545 142.057 242.956C142.391 243.368 143.003 243.426 143.392 243.074C143.503 242.956 143.614 242.898 143.726 242.78L163.471 251.767C163.471 251.944 163.526 252.12 163.526 252.237C163.526 252.766 163.971 253.236 164.472 253.236H164.527C165.028 253.236 165.473 252.766 165.473 252.237C165.473 252.237 165.473 252.237 165.473 252.179C165.25 244.131 159.021 237.787 151.457 237.846Z" fill="#FECE2F"/>
<path d="M208.746 245.188C208.412 245.188 208.134 245.012 207.967 244.777L196.787 227.742C196.62 227.507 196.565 227.214 196.62 226.92C196.676 226.626 196.843 226.391 197.121 226.274L213.362 216.934C213.751 216.699 214.307 216.817 214.586 217.228L225.71 231.737C225.876 231.972 225.932 232.265 225.876 232.5C225.821 232.794 225.71 233.029 225.487 233.205L209.357 245.012C209.135 245.07 208.968 245.188 208.746 245.188ZM198.956 227.449L209.024 242.721L223.485 232.148L213.529 219.108L198.956 227.449Z" fill="#1A1A1A"/>
<path d="M148.341 226.92L141.89 217.111C141.778 216.876 141.556 216.759 141.278 216.7C141.055 216.641 140.777 216.7 140.555 216.876L129.598 224.865C129.153 225.158 129.041 225.804 129.32 226.274L135.771 236.084C135.883 236.319 136.105 236.436 136.383 236.495H136.55C136.717 236.495 136.939 236.436 137.106 236.319L148.063 228.33C148.508 228.036 148.62 227.39 148.341 226.92Z" fill="#1A1A1A"/>
<path d="M184.828 194.143C184.438 194.143 184.049 193.85 183.938 193.438L179.154 178.753C179.043 178.46 179.099 178.166 179.21 177.931C179.321 177.696 179.599 177.52 179.877 177.461L194.116 174.407C194.561 174.289 195.062 174.583 195.228 175.053L199.678 187.799C199.789 188.034 199.734 188.328 199.622 188.563C199.511 188.798 199.344 188.974 199.066 189.092L185.161 194.143C185.05 194.143 184.939 194.143 184.828 194.143ZM181.379 179.223L185.495 191.852L197.62 187.506L193.838 176.58L181.379 179.223Z" fill="#FECE2F"/>
<path d="M195.842 153.203C195.564 153.203 195.23 153.027 195.063 152.792L186.998 141.22C186.831 140.985 186.776 140.691 186.831 140.456C186.887 140.163 187.054 139.928 187.221 139.752L204.352 128.062C204.574 127.945 204.852 127.886 205.075 127.945C205.353 128.004 205.575 128.18 205.686 128.415L214.085 143.335C214.196 143.57 214.252 143.863 214.196 144.157C214.141 144.451 213.918 144.686 213.696 144.744L196.231 153.144C196.12 153.203 195.953 153.203 195.842 153.203ZM189.112 140.868L196.12 150.912L211.916 143.393L204.574 130.353L189.112 140.868Z" fill="#FECE2F"/>
<path d="M155.35 120.19L144.004 109.793C143.67 109.499 143.17 109.44 142.78 109.734L126.818 123.068C126.428 123.42 126.317 124.067 126.651 124.478L136.94 138.282C137.107 138.517 137.33 138.634 137.608 138.634H137.663C137.886 138.634 138.108 138.517 138.331 138.34L155.35 121.6C155.517 121.423 155.684 121.13 155.684 120.836C155.684 120.66 155.573 120.366 155.35 120.19Z" fill="#FECE2F"/>
<path d="M181.491 162.894C181.379 162.894 181.268 162.894 181.157 162.835L166.863 157.137C166.529 157.02 166.307 156.667 166.251 156.315C166.195 155.963 166.362 155.61 166.64 155.375L179.933 146.153C180.211 145.918 180.601 145.918 180.879 146.094C181.213 146.271 181.379 146.564 181.435 146.917L182.381 161.837C182.381 162.189 182.269 162.541 181.991 162.718C181.936 162.776 181.713 162.835 181.491 162.894ZM169.366 155.904L180.49 160.309L179.766 148.679L169.366 155.904Z" fill="#FECE2F"/>
<path d="M166.363 140.983L163.47 129.177C163.359 128.824 163.137 128.589 162.803 128.472C162.469 128.354 162.136 128.413 161.913 128.648L151.012 138.281C150.734 138.516 150.622 138.927 150.678 139.339C150.789 139.691 151.067 139.985 151.457 140.102L165.195 142.276H165.306C165.584 142.276 165.807 142.158 166.029 141.923C166.363 141.688 166.418 141.277 166.363 140.983Z" fill="#1A1A1A"/>
<path d="M118.696 152.203C118.362 152.203 118.084 152.027 117.917 151.792C117.75 151.498 117.695 151.146 117.806 150.852L122.311 139.046C122.478 138.693 122.812 138.399 123.201 138.399C123.59 138.399 123.924 138.576 124.091 138.928L129.709 150.617C129.875 150.911 129.82 151.322 129.653 151.616C129.486 151.91 129.208 152.086 128.874 152.144L118.696 152.203ZM123.312 141.806L120.142 150.147L127.261 150.03L123.312 141.806Z" fill="#1A1A1A"/>
<path d="M120.31 188.446C119.92 188.446 119.587 188.211 119.42 187.859C119.197 187.33 119.364 186.743 119.865 186.508L130.711 181.162L122.534 160.251L110.409 174.76C110.076 175.171 109.464 175.23 109.075 174.877C108.685 174.525 108.63 173.879 108.963 173.467L122.089 157.725C122.312 157.49 122.646 157.314 122.979 157.373C123.313 157.431 123.591 157.666 123.702 157.96L132.824 181.28C133.047 181.808 132.824 182.337 132.323 182.572L120.643 188.328C120.532 188.446 120.421 188.446 120.31 188.446Z" fill="#FECE2F"/>
<path d="M229.768 207.125C229.602 207.125 229.49 207.066 229.379 207.008L214.473 199.724C214.139 199.606 213.973 199.254 213.917 198.902C213.861 198.549 214.028 198.197 214.306 197.962L227.099 188.152C227.377 187.976 227.766 187.917 228.044 188.035C228.378 188.152 228.6 188.505 228.6 188.857L230.658 205.95C230.714 206.303 230.547 206.655 230.269 206.89C230.158 207.066 229.935 207.125 229.768 207.125ZM216.754 198.667L228.545 204.423L226.876 190.854L216.754 198.667Z" fill="#FECE2F"/>
<path d="M246.399 139.81C246.344 139.457 246.121 139.105 245.843 138.987C245.51 138.87 245.176 138.87 244.898 139.105L234.33 147.211C233.885 147.563 233.829 148.151 234.107 148.621C234.219 148.738 234.33 148.856 234.497 148.914L246.844 154.906C246.956 154.964 247.122 155.023 247.234 155.023C247.79 155.023 248.179 154.553 248.179 154.025C248.179 153.966 248.179 153.966 248.179 153.907L246.399 139.81Z" fill="#1A1A1A"/>
<path d="M191.113 237.083L182.158 224.219C181.992 223.984 181.714 223.808 181.38 223.808C181.046 223.808 180.768 223.984 180.601 224.219L172.536 236.202C172.369 236.495 172.314 236.907 172.425 237.2C172.592 237.553 172.926 237.729 173.259 237.788L190.279 238.669H190.335C190.668 238.669 191.002 238.434 191.169 238.14C191.391 237.788 191.336 237.376 191.113 237.083Z" fill="#FECE2F"/>
<path d="M216.308 269.624C216.141 269.624 215.919 269.566 215.752 269.448L192.447 252.179L182.881 262.164C182.491 262.576 181.935 262.576 181.546 262.164C181.157 261.753 181.157 261.166 181.546 260.755L191.669 250.182C192.002 249.829 192.503 249.77 192.892 250.064L216.92 267.803C217.365 268.097 217.476 268.743 217.142 269.213V269.272C216.92 269.507 216.586 269.624 216.308 269.624Z" fill="#FECE2F"/>
<path d="M263.976 154.906C263.642 154.906 263.364 154.729 263.197 154.436L254.076 139.574C253.797 139.163 253.909 138.576 254.242 138.223L269.371 125.301C269.76 124.948 270.372 125.007 270.706 125.418C271.04 125.829 270.984 126.476 270.595 126.828L256.134 139.222L264.31 152.556L281.162 142.57C281.607 142.276 282.219 142.453 282.497 142.923C282.775 143.393 282.608 144.039 282.163 144.332L264.588 154.788C264.365 154.847 264.198 154.906 263.976 154.906Z" fill="#FECE2F"/>
<path d="M256.466 207.301C256.3 207.301 256.188 207.242 256.077 207.183C255.576 206.948 255.354 206.361 255.576 205.832L261.806 191.617C261.973 191.265 262.306 191.03 262.64 191.03L283.108 190.325C283.609 190.325 284.054 190.736 284.109 191.324C284.109 191.852 283.72 192.322 283.219 192.381C283.219 192.381 283.219 192.381 283.164 192.381L263.252 193.027L257.245 206.655C257.189 207.066 256.856 207.301 256.466 207.301Z" fill="#FECE2F"/>
<path d="M242.229 267.45L249.904 347.57L256.968 417.882C256.968 417.882 259.86 429.395 259.638 433.095C259.415 436.796 259.526 442.435 257.969 444.138C256.412 445.842 244.064 451.305 244.064 451.305L231.828 453.067L221.26 453.478C221.26 453.478 210.081 452.127 207.522 447.487C204.964 442.846 202.961 418.058 202.961 418.058L198.567 379.114L192.783 326.131L187.443 278.669L185.219 278.551L183.272 299.756L178.989 340.346L173.427 398.263L170.869 421.23C170.869 421.23 171.536 431.274 170.479 437.031C169.423 442.787 166.085 448.309 166.085 448.309L159.355 450.071L142.002 450.835L129.599 448.015C129.599 448.015 117.418 444.373 116.806 437.09C116.195 429.806 117.752 413.418 117.752 413.418L120.199 379.642L123.815 332.768L126.929 292.766L129.599 251.942L130.989 238.55L143.059 242.72L168.755 254.233C168.755 254.233 187.555 265.276 196.509 266.98C205.464 268.683 230.715 269.153 230.715 269.153L242.229 267.45Z" fill="#FECE2F"/>
<path d="M221.649 425.872C221.593 425.872 214.641 424.168 213.528 419.704C213.028 417.648 214.307 415.71 215.642 413.536C217.199 411.069 218.979 408.309 218.089 405.019C217.255 401.906 214.641 398.675 211.582 394.975C208.912 391.744 205.964 388.043 203.684 383.873C201.014 378.88 199.345 371.42 198.511 366.545L197.788 361.787C197.677 361.258 197.232 360.906 196.676 360.964C196.175 361.023 195.786 361.552 195.841 362.08C195.897 362.257 196.119 364.371 196.62 367.308L198.567 379.879L202.738 423.757C202.794 424.168 203.016 424.521 203.406 424.638L209.246 426.577C209.301 426.577 209.357 426.635 209.412 426.635L221.259 427.869H221.371C221.816 427.869 222.261 427.516 222.316 427.046C222.483 426.518 222.149 426.048 221.649 425.872Z" fill="white"/>
<path d="M150.846 288.715C148.454 285.308 146.229 281.784 144.171 278.142L144.06 277.965C140.445 271.21 138.887 263.398 139.61 255.703C140.167 249.301 140.945 241.547 140.945 241.547C140.945 241.429 140.945 241.253 140.89 241.136C140.723 240.666 140.5 240.313 137.552 239.374C135.55 238.786 133.492 238.434 131.434 238.375C130.934 238.375 130.489 238.786 130.433 239.315L129.098 258.581L125.427 307.159L117.641 415.122C117.641 415.299 117.696 415.534 117.752 415.71C117.919 416.062 120.032 419.41 130.155 421.701C133.993 422.582 145.339 424.168 145.84 424.227H145.951C146.396 424.227 146.841 423.875 146.897 423.405C147.008 422.876 146.618 422.347 146.118 422.23C141.112 421.231 138.053 415.416 136.829 410.306C135.661 405.548 136.218 402.141 136.941 401.436C138.331 400.261 139.332 400.907 141.668 403.022C142.558 403.903 143.504 404.667 144.505 405.313C146.173 406.37 148.009 406.312 149.399 405.137C150.901 403.786 151.513 401.612 150.846 399.615C150.456 398.323 149.233 396.619 147.341 393.976C144.505 390.041 140.222 383.99 136.718 376.178C135.661 373.711 134.771 371.185 134.104 368.542C132.324 361.611 131.712 354.386 132.213 347.161C132.88 337.175 133.548 327.718 134.104 319.083C134.382 315.206 135.439 311.388 137.274 308.04C139.165 304.633 141.557 302.166 143.837 301.285C145.617 300.58 147.564 301.109 149.455 301.638C151.68 302.225 153.96 302.93 155.684 301.226C157.909 299.112 155.128 295 150.846 288.715Z" fill="white"/>
<path d="M251.35 108.09L232.717 94.9909C232.717 94.9909 231.549 93.3462 232.161 91.8778C232.773 90.4093 234.719 85.7101 234.719 85.7101L243.285 83.3605L252.518 81.1871C252.518 81.1871 259.47 76.0768 265.811 64.4464C272.151 52.816 271.317 46.4722 271.317 46.4722C271.317 46.4722 261.584 48.8217 253.241 43.5939C244.898 38.3661 236.165 32.9033 233.663 35.9578C231.16 39.0122 227.266 48.528 225.208 46.8246C223.15 45.1212 222.928 42.7128 222.817 40.1283C222.705 37.5437 218.312 34.1956 214.585 36.369C210.803 38.4836 207.688 45.6498 210.358 50.6427C213.028 55.6355 215.809 55.5181 215.809 55.5181L205.241 81.5396L202.182 83.0668L181.658 88.9995C181.658 88.9995 184.884 114.081 204.295 121.835C223.707 129.589 236.499 121.306 236.499 121.306C236.499 121.306 244.453 117.253 248.068 113.259C251.683 109.265 251.35 108.09 251.35 108.09Z" fill="#FECE2F"/>
<path d="M96.2819 153.908C96.2819 153.908 86.2703 168.358 78.9286 172.587C75.4245 174.643 66.2473 169.944 62.8545 167.594C49.2278 158.078 29.3716 139.223 29.3716 139.223L26.7019 127.592C26.7019 127.592 25.0889 123.422 24.0877 123.951C23.0866 124.479 22.9197 130.06 22.9197 130.706C22.9197 131.293 23.1978 136.873 22.6416 136.815C22.0854 136.697 10.9059 129.355 10.9059 129.355C10.9059 129.355 6.95691 127.24 6.45633 128.356C5.95575 129.531 10.9059 135.464 10.9059 135.464C10.9059 135.464 2.3405 129.472 1.45059 130.823C0.560675 132.174 4.45405 136.58 4.45405 136.58L11.4065 144.04C11.4065 144.04 2.3405 138.166 1.95116 139.223C1.56183 140.28 3.89785 143.276 4.12033 143.57C4.39843 143.863 13.0751 151.499 13.0751 151.499C13.0751 151.499 2.95232 148.269 3.1748 150.207C3.39727 152.146 6.84567 153.438 6.84567 153.438L19.8607 159.312C19.8607 159.312 30.9846 171.706 34.7667 175.759C75.647 219.814 89.9969 212.354 89.9969 212.354L104.347 204.894L120.977 188.212L105.737 169.298L96.2819 153.908Z" fill="#FECE2F"/>
<path d="M216.309 453.01L218.088 470.397L229.101 473.98L242.227 471.571L248.957 463.642L245.286 450.66L231.771 453.127L216.309 453.01Z" fill="#FECE2F"/>
<path d="M267.424 476.799L258.414 471.688C252.518 468.34 248.458 462.29 247.345 455.3V455.241L246.4 450.484C246.289 449.955 245.788 449.602 245.288 449.72C244.787 449.837 244.453 450.366 244.565 450.895L245.51 455.653C245.955 458.296 246.734 460.822 247.902 463.171C246.789 463.289 244.676 463.582 243.73 463.759C239.559 464.757 236.667 466.284 234.275 468.986C232.773 470.631 230.604 471.454 228.49 471.101C224.764 470.749 221.316 469.104 218.59 466.402L218.034 460.763C217.978 458.825 219.035 457.239 221.149 456.005C222.372 455.3 223.707 454.83 225.098 454.537C225.598 454.419 225.932 454.008 225.876 453.479C225.821 452.951 225.431 452.539 224.931 452.539L217.2 452.716C217.033 452.304 216.643 452.011 216.199 452.011C215.698 452.069 215.309 452.598 215.309 453.127L216.032 460.704V460.88C216.032 461.115 216.087 461.292 216.087 461.527C216.087 461.585 216.143 461.644 216.143 461.703L218.757 488.605C218.979 491.073 220.982 492.952 223.318 492.952H268.592C271.206 492.952 273.375 490.72 273.375 487.901V487.02C273.32 482.79 271.039 478.855 267.424 476.799Z" fill="#1A1A1A"/>
<path d="M215.975 54.6953L210.302 69.9674L204.573 81.8915L195.84 84.5935L181.936 88.8228L183.715 97.6925C183.715 97.6925 203.349 93.1695 208.466 86.1795C213.583 79.1895 217.032 68.6164 218.088 65.6794C219.145 62.7424 218.589 56.2813 215.975 54.6953Z" fill="white"/>
<path d="M146.005 422.23C145.95 422.23 145.56 422.171 144.893 422.171C140.888 421.936 136.884 421.407 132.935 420.644C126.093 419.351 118.251 414.887 118.195 414.77C117.695 414.535 117.139 414.711 116.916 415.181C116.861 415.298 116.805 415.416 116.805 415.533C116.749 416.121 114.969 430.394 115.915 437.326C116.916 444.786 123.646 446.841 123.869 446.959L134.158 450.19C134.269 450.19 134.325 450.248 134.436 450.248C134.993 450.248 135.382 449.778 135.382 449.25C135.382 448.839 135.159 448.486 134.826 448.31C134.714 448.251 126.316 443.963 124.592 437.737C123.98 435.446 124.314 433.214 125.648 430.923C129.653 424.168 141.556 424.05 144.893 424.168C145.449 424.227 145.838 424.227 145.838 424.227C146.339 424.227 146.784 423.816 146.84 423.287C146.895 422.758 146.506 422.347 146.005 422.23Z" fill="white"/>
<path d="M221.759 452.715C221.704 452.656 214.64 447.487 213.639 439.146C213.138 435.269 213.806 432.332 215.474 430.394C217.755 427.75 221.37 427.868 221.426 427.868C221.982 427.868 222.427 427.457 222.427 426.869C222.427 426.341 222.038 425.871 221.537 425.812L204.684 424.461C204.406 424.461 204.128 424.578 203.906 424.755C203.683 424.99 203.572 425.283 203.627 425.577C203.683 426.341 204.962 443.786 206.687 447.604C207.688 449.836 210.469 451.716 214.918 453.126C216.921 453.772 219.034 454.242 221.092 454.594H221.203C221.593 454.594 221.926 454.359 222.093 453.948C222.26 453.537 222.149 453.008 221.759 452.715Z" fill="white"/>
<path d="M96.1151 154.495L81.3759 170.59C79.596 172.469 77.0932 173.233 74.6459 172.704C70.4744 171.764 63.077 167.007 59.4061 164.833C46.1685 157.08 29.2602 138.812 29.2602 138.812C29.2602 138.812 26.8129 145.155 32.5974 150.501C41.6634 158.842 58.6274 171.588 64.3006 175.171C73.0329 180.693 73.9228 188.799 79.3179 187.33C84.5462 185.921 81.8764 180.575 86.2704 173.468C95.1695 159.018 99.7859 160.956 99.7859 160.956L96.1151 154.495Z" fill="white"/>
<path d="M159.411 449.66C158.911 449.601 158.41 450.012 158.354 450.541V450.6L156.797 466.577C154.072 469.22 150.623 470.865 146.952 471.217C144.839 471.57 142.67 470.806 141.168 469.103C140.278 468.046 139.221 467.164 138.053 466.401C136.107 465.167 133.937 464.286 131.713 463.875C130.712 463.64 128.654 463.405 127.541 463.288C128.709 460.938 129.544 458.412 129.933 455.769L131.045 448.72C131.101 448.192 130.767 447.663 130.267 447.545C129.766 447.487 129.265 447.839 129.154 448.368L128.042 455.417C126.929 462.348 122.869 468.398 117.029 471.746L108.019 476.857C104.403 478.912 102.123 482.907 102.123 487.253V488.134C102.123 490.895 104.237 493.186 106.906 493.186H152.181C154.517 493.186 156.519 491.306 156.741 488.839L160.412 450.894C160.412 450.247 160.023 449.719 159.411 449.66Z" fill="#1A1A1A"/>
<path d="M223.484 75.1377C223.707 76.6062 224.263 78.0159 225.153 79.1907C228.768 84.1836 233.885 88.0017 232.328 90.9386L236.333 82.5976L228.156 79.1907L223.484 75.1377Z" fill="#1A1A1A"/>
<path d="M237.221 82.2446C237.11 81.9509 236.943 81.7747 236.665 81.6572L228.656 78.309L224.095 74.3735C223.817 74.0798 223.372 74.0798 223.038 74.256C222.705 74.4322 222.482 74.8434 222.538 75.2546C222.76 76.958 223.428 78.544 224.485 79.8363C225.597 81.3048 226.765 82.7145 227.933 84.0068C230.158 86.5326 232.216 88.8822 231.659 90.2919L231.548 90.4681C231.326 90.938 231.493 91.5842 231.938 91.8191C232.104 91.8779 232.216 91.9366 232.382 91.9366C232.716 91.9366 233.05 91.7604 233.217 91.408C233.272 91.2905 233.328 91.173 233.384 91.0555L237.221 83.0082C237.277 82.7732 237.277 82.4795 237.221 82.2446Z" fill="#1A1A1A"/>
<path d="M230.658 152.615C225.319 148.386 217.81 149.502 213.75 155.082C211.803 157.784 210.969 161.191 211.414 164.539C212.304 171.529 218.422 176.404 225.041 175.406C231.659 174.466 236.276 168.005 235.33 161.015C234.885 157.667 233.217 154.671 230.658 152.615ZM217.254 171.294C212.804 167.711 211.914 161.015 215.252 156.316C215.307 156.257 215.363 156.198 215.363 156.139L231.548 169.062C231.493 169.121 231.493 169.179 231.437 169.238C228.1 173.937 221.815 174.936 217.31 171.412C217.254 171.353 217.254 171.353 217.254 171.294Z" fill="#FECE2F"/>
<path d="M169.756 194.554C164.139 190.795 156.686 192.616 153.182 198.549C149.622 204.481 151.346 212.353 156.964 216.053C157.02 216.053 157.02 216.112 157.075 216.112C162.748 219.812 170.146 217.933 173.65 211.941C177.098 206.067 175.374 198.255 169.756 194.554ZM172.037 211.06C169.089 216.053 162.86 217.639 158.076 214.526C158.021 214.467 157.965 214.467 157.909 214.408L168.588 196.258L168.755 196.375C173.483 199.43 174.985 206.009 172.037 211.06Z" fill="#FECE2F"/>
<path d="M230.603 244.424C226.598 244.424 223.428 247.831 223.428 252.001C223.428 256.23 226.654 259.579 230.603 259.579C234.607 259.579 237.778 256.172 237.778 252.001C237.833 247.831 234.607 244.424 230.603 244.424Z" fill="#1A1A1A"/>
<path d="M218.422 183.865L214.863 178.755C214.696 178.52 214.473 178.402 214.195 178.344C213.917 178.285 213.695 178.402 213.472 178.52L208.633 182.279C208.188 182.632 208.133 183.278 208.466 183.689L212.026 188.799C212.193 189.034 212.415 189.152 212.694 189.211H212.805C213.027 189.211 213.194 189.152 213.361 189.034L218.2 185.275C218.645 184.923 218.756 184.335 218.422 183.865Z" fill="#1A1A1A"/>
<path d="M168.754 172.176C168.587 171.941 168.364 171.823 168.142 171.823L159.298 171.001C158.798 170.942 158.297 171.353 158.297 171.882L157.352 183.16C157.352 183.454 157.407 183.688 157.574 183.923C157.741 184.158 157.963 184.276 158.241 184.276L167.085 185.098H167.196C167.697 185.098 168.086 184.687 168.142 184.158L169.087 172.88C168.976 172.645 168.92 172.41 168.754 172.176Z" fill="#1A1A1A"/>
<path d="M164.296 394.654C166.425 393.91 167.462 391.11 166.613 388.4C165.764 385.689 163.35 384.095 161.221 384.839C159.092 385.583 158.055 388.383 158.904 391.094C159.753 393.804 162.167 395.398 164.296 394.654Z" fill="#1A1A1A"/>
<path d="M163.192 395.797C162.247 395.797 161.357 395.503 160.578 394.975C158.02 393.212 156.963 389.805 158.02 386.81C158.52 385.4 159.521 384.343 160.856 383.814C162.191 383.403 163.693 383.579 164.861 384.401C166.085 385.224 167.03 386.516 167.475 388.043C167.976 389.512 167.92 391.156 167.419 392.625C166.919 394.035 165.918 395.092 164.583 395.621C164.138 395.738 163.693 395.797 163.192 395.797ZM162.302 385.635C162.024 385.635 161.802 385.694 161.524 385.752C160.745 386.046 160.133 386.692 159.855 387.515C159.521 388.513 159.521 389.688 159.8 390.687C160.133 391.744 160.745 392.625 161.635 393.212C162.302 393.682 163.192 393.858 164.027 393.565C164.805 393.271 165.417 392.625 165.695 391.803C166.029 390.804 166.029 389.688 165.751 388.631C165.473 387.573 164.805 386.692 163.915 386.105C163.415 385.811 162.859 385.635 162.302 385.635Z" fill="#1A1A1A"/>
<path d="M250.186 54.7815C250.995 52.3997 249.189 49.5366 246.153 48.3866C243.117 47.2367 240 48.2353 239.191 50.6171C238.382 52.999 240.188 55.8621 243.224 57.0121C246.26 58.162 249.377 57.1634 250.186 54.7815Z" fill="white"/>
<path d="M246.511 47.4124C244.954 46.7663 243.23 46.7075 241.561 47.1774C239.114 47.7648 237.557 50.4081 238.168 52.9927C238.335 53.6388 238.613 54.2849 239.003 54.8136C239.948 56.2821 241.339 57.3981 242.952 57.9855C243.842 58.338 244.843 58.5142 245.788 58.5142C246.511 58.5142 247.179 58.3967 247.846 58.2205C249.348 57.8093 250.572 56.6933 251.128 55.166C252.073 52.229 250.015 48.7634 246.511 47.4124ZM240.56 53.7563C240.004 52.9339 239.837 51.9354 240.059 50.9955C240.393 50.0557 241.172 49.4095 242.062 49.1746C242.562 48.9984 243.063 48.9396 243.564 48.9396C244.342 48.9396 245.065 49.0571 245.788 49.3508C247.012 49.762 248.069 50.6431 248.792 51.7591C245.788 50.6431 242.729 51.6417 241.895 54.05C241.784 54.4024 241.728 54.7549 241.728 55.1073C241.283 54.6374 240.894 54.2262 240.56 53.7563Z" fill="#1A1A1A"/>
<path d="M264.563 60.1303C265.371 57.7484 263.566 54.8852 260.53 53.7353C257.494 52.5853 254.377 53.584 253.568 55.9658C252.759 58.3477 254.565 61.2105 257.601 62.3606C260.637 63.5108 263.754 62.5122 264.563 60.1303Z" fill="white"/>
<path d="M246.566 46.2965C245.509 46.2965 244.453 46.179 243.452 45.8853C242.951 45.7091 242.673 45.1804 242.784 44.6518C242.951 44.1231 243.452 43.8294 243.952 43.9469C245.621 44.4168 247.401 44.3581 249.013 43.8881C249.514 43.7119 250.07 44.0056 250.237 44.5343C250.404 45.0629 250.126 45.5916 249.625 45.7678C248.68 46.1203 247.623 46.2965 246.566 46.2965Z" fill="#1A1A1A"/>
<path d="M263.918 52.6403H263.862C261.582 52.4641 259.58 51.1131 258.467 49.0572C258.245 48.5873 258.412 47.9411 258.857 47.7062C259.302 47.4712 259.913 47.6474 260.136 48.1173V48.1761C260.97 49.6446 262.416 50.5844 264.029 50.7019C264.585 50.7606 264.975 51.2305 264.919 51.7592C264.864 52.2291 264.419 52.6403 263.918 52.6403Z" fill="#1A1A1A"/>
<path d="M260.859 52.7577C257.355 51.4067 253.684 52.699 252.683 55.5772C252.627 55.636 252.627 55.7535 252.627 55.8122C252.349 56.3409 249.902 60.8639 252.182 63.566C252.571 64.0359 253.016 64.5058 253.517 64.9757C254.463 65.9155 254.518 66.033 254.407 66.6204C254.184 67.2665 253.739 67.7365 253.128 68.0302C251.737 68.6176 250.124 68.6176 248.789 67.9127C248.289 67.6777 247.733 67.9127 247.51 68.4413C247.288 68.97 247.51 69.5574 248.011 69.7923C249.012 70.2623 250.069 70.556 251.181 70.556C252.126 70.556 253.072 70.3797 253.962 69.9098C255.074 69.4399 255.909 68.4413 256.298 67.2665C256.743 65.4456 255.853 64.5645 254.852 63.6247C254.407 63.2135 254.018 62.8023 253.684 62.3912C253.183 61.8038 253.128 60.9227 253.295 59.9828C254.24 61.6275 255.686 62.8023 257.41 63.4485C258.3 63.8009 259.246 63.9771 260.247 63.9771C262.75 63.9771 264.863 62.7436 265.642 60.5702C266.476 57.5744 264.363 54.1088 260.859 52.7577ZM254.463 56.2821C254.907 54.9899 256.298 54.2262 258.022 54.2262C258.745 54.2262 259.524 54.3437 260.191 54.6374C261.415 55.0486 262.472 55.9297 263.195 57.0457C260.191 55.9297 257.132 56.9283 256.298 59.3367C256.187 59.6891 256.131 60.0416 256.131 60.394C254.741 59.2192 254.018 57.6331 254.463 56.2821Z" fill="#1A1A1A"/>
<path d="M243.396 68.3231C240.003 66.2672 236.332 66.5609 235.053 68.9105C234.385 70.144 234.496 71.6712 235.331 73.1985C236.165 74.7257 237.389 75.9592 238.835 76.7816C240.17 77.6039 241.727 78.0739 243.34 78.1326C245.009 78.1326 246.455 77.4277 247.178 76.1354C248.457 73.7859 246.788 70.2615 243.396 68.3231Z" fill="#1A1A1A"/>
<path d="M218.366 41.4215C218.923 41.4802 219.368 41.0103 219.368 40.4817C219.423 39.8943 218.978 39.4243 218.478 39.4243C217.087 39.3656 215.752 39.8943 214.695 40.8341C213.472 42.0089 212.749 43.6536 212.638 45.8857C212.582 46.4731 213.027 46.943 213.527 46.943H213.583C214.084 46.943 214.529 46.5318 214.529 46.0032C214.64 44.241 215.14 43.1837 215.752 42.4788L216.809 45.0046C216.976 45.357 217.31 45.592 217.699 45.592C217.81 45.592 217.977 45.5333 218.088 45.4745C218.589 45.2396 218.811 44.6522 218.589 44.1235L217.476 41.4802C217.755 41.4215 218.033 41.4215 218.366 41.4215Z" fill="#1A1A1A"/>
<path d="M257.913 477.857C252.351 477.857 247.846 473.099 247.846 467.225C247.846 465.815 248.124 464.406 248.624 463.055C250.794 457.651 256.689 455.125 261.806 457.416C266.923 459.706 269.315 465.933 267.146 471.337C266.478 472.982 265.422 474.45 264.087 475.566C262.418 477.035 260.193 477.857 257.913 477.857ZM257.913 458.59C254.631 458.59 251.683 460.646 250.404 463.877C249.959 464.934 249.792 466.05 249.792 467.225C249.792 471.983 253.463 475.86 257.968 475.86C262.474 475.86 266.145 471.983 266.145 467.225C266.089 462.467 262.418 458.59 257.913 458.59Z" fill="#1A1A1A"/>
<path d="M257.913 477.856C252.351 477.856 247.846 473.098 247.846 467.224C247.846 465.814 248.124 464.405 248.624 463.054L250.404 463.817C249.959 464.875 249.792 465.991 249.792 467.165C249.792 471.923 253.463 475.8 257.913 475.8C259.748 475.8 261.528 475.154 262.974 473.921L264.142 475.507C262.418 477.034 260.193 477.856 257.913 477.856Z" fill="#FECE2F"/>
<path d="M246.844 470.572C243.674 470.572 240.837 468.281 240.058 465.05C239.892 464.463 239.836 463.817 239.836 463.171C239.836 459.059 242.951 455.77 246.844 455.77C249.18 455.77 251.349 457.003 252.628 459C252.962 459.47 252.851 460.116 252.406 460.41C251.961 460.762 251.349 460.645 251.071 460.175C249.514 457.708 246.343 457.062 244.007 458.707C242.617 459.705 241.783 461.35 241.783 463.171C241.783 463.641 241.838 464.052 241.949 464.522C242.506 466.871 244.508 468.516 246.844 468.516C247.4 468.516 247.79 468.986 247.79 469.515C247.79 470.102 247.345 470.572 246.844 470.572Z" fill="#1A1A1A"/>
<path d="M246.844 470.573C243.674 470.573 240.837 468.282 240.059 465.051L241.894 464.522C242.45 466.872 244.453 468.517 246.789 468.517C247.456 468.517 248.123 468.399 248.791 468.106L249.514 469.985C248.68 470.396 247.79 470.573 246.844 470.573Z" fill="#FECE2F"/>
<path d="M117.251 477.857C111.689 477.857 107.184 473.099 107.184 467.225C107.184 461.351 111.689 456.593 117.251 456.593C121.533 456.593 125.316 459.412 126.762 463.642C127.151 464.816 127.318 465.991 127.318 467.225C127.318 473.099 122.813 477.857 117.251 477.857ZM117.251 458.59C112.746 458.59 109.075 462.467 109.075 467.225C109.075 470.162 110.465 472.864 112.801 474.45C114.136 475.331 115.638 475.801 117.195 475.801C121.7 475.742 125.316 471.865 125.316 467.107C125.316 462.408 121.7 458.649 117.251 458.59Z" fill="#1A1A1A"/>
<path d="M117.252 477.855C115.305 477.855 113.414 477.268 111.801 476.151L112.802 474.448C114.137 475.329 115.639 475.799 117.196 475.799C121.701 475.799 125.372 471.922 125.372 467.164C125.372 466.166 125.205 465.167 124.871 464.227L126.707 463.522C127.096 464.697 127.263 465.872 127.263 467.106C127.319 473.097 122.813 477.855 117.252 477.855Z" fill="#FECE2F"/>
<path d="M128.376 470.573C127.819 470.573 127.43 470.103 127.43 469.515C127.43 468.987 127.875 468.517 128.376 468.517C130.767 468.517 132.825 466.754 133.326 464.287C133.381 463.935 133.437 463.524 133.437 463.113C133.437 460.176 131.156 457.767 128.376 457.767C126.707 457.767 125.094 458.648 124.204 460.117C123.87 460.587 123.314 460.704 122.869 460.352C122.424 460.058 122.313 459.412 122.591 458.942C124.76 455.535 129.099 454.654 132.325 456.945C134.271 458.296 135.384 460.646 135.384 463.054C135.384 463.583 135.328 464.111 135.217 464.581C134.494 468.164 131.657 470.573 128.376 470.573Z" fill="#1A1A1A"/>
<path d="M128.374 470.572C127.428 470.572 126.538 470.396 125.648 469.985L126.371 468.105C126.983 468.399 127.651 468.516 128.374 468.516C130.765 468.516 132.823 466.754 133.324 464.287L135.215 464.698C134.492 468.164 131.655 470.572 128.374 470.572Z" fill="#FECE2F"/>
<path d="M260.194 429.748C259.693 425.695 258.915 421.701 257.914 417.765L248.013 316.146C248.069 316.028 248.069 315.911 248.013 315.852L243.063 265.571V265.512C243.063 265.454 243.007 265.395 243.007 265.336C243.007 265.336 243.007 265.277 242.952 265.277C242.896 265.219 242.896 265.16 242.896 265.16C242.896 265.101 242.841 265.101 242.841 265.101C242.785 265.042 242.785 265.042 242.785 264.984L242.729 264.925C242.674 264.866 242.674 264.866 242.618 264.866C242.618 264.866 242.562 264.866 242.562 264.808L242.507 264.749C242.451 264.69 242.451 264.69 242.396 264.69C242.34 264.69 242.34 264.631 242.284 264.631C242.229 264.631 242.229 264.573 242.173 264.573C242.118 264.573 242.118 264.573 242.062 264.514H241.839L232.162 267.04L221.205 267.862H221.149C220.815 267.921 220.482 268.156 220.37 268.449C220.148 268.978 220.37 269.565 220.871 269.8C221.038 269.859 221.149 269.859 221.316 269.859H221.371C222.095 269.8 229.714 269.565 233.83 278.435C238.002 287.481 241.45 298.642 243.564 306.454C245.121 312.034 246.178 317.673 246.678 323.43C247.624 332.534 244.509 341.639 238.169 347.924C235.944 350.156 233.83 351.86 233.719 355.032C233.552 359.202 236.5 364.782 239.114 369.658C241.172 373.476 243.731 378.234 242.674 379.35C241.228 380.994 237.279 378.586 234.442 376.883C232.662 375.825 231.16 374.886 230.048 374.709C226.767 374.298 223.763 376.765 223.374 380.29C223.318 380.701 223.318 381.112 223.374 381.582C223.652 384.401 226.155 386.927 229.381 390.099C230.827 391.568 232.495 393.271 234.164 395.092C234.609 395.621 235.054 396.091 235.499 396.619C240.171 401.964 245.01 407.545 245.455 414.417C245.844 421.466 242.674 423.111 242.507 423.228C242.451 423.228 242.451 423.287 242.451 423.287C235.499 425.167 227.212 426.048 217.645 425.871C208.134 425.695 205.297 423.698 204.686 423.169L192.116 310.742C193.895 310.448 195.564 309.391 196.676 307.864C199.346 304.163 198.512 298.113 198.011 294.53C197.9 293.825 197.844 293.237 197.789 292.768C197.622 291.886 197.844 290.947 198.401 290.242C199.624 288.715 202.794 288.421 205.631 288.186C206.91 288.068 208.078 288.01 209.191 287.775C210.859 287.54 212.194 286.13 212.305 284.309C212.361 283.134 211.916 280.374 206.465 278.788C200.236 276.967 189.78 277.495 187.054 277.73H186.943C183.105 277.789 179.323 276.967 175.819 275.322C175.374 275.087 174.873 275.263 174.595 275.616C174.262 276.086 174.373 276.732 174.818 277.025C174.873 277.084 174.929 277.084 174.985 277.143C177.988 278.553 181.158 279.434 184.44 279.669C184.384 279.786 184.384 279.845 184.384 279.962L180.491 318.554V318.613L180.435 318.907C180.324 319.67 179.712 322.49 176.598 324.898C175.708 325.544 174.818 326.132 173.872 326.602C171.592 327.835 169.423 329.069 169.59 333.592C169.645 334.179 169.645 334.766 169.701 335.412C169.868 338.643 170.146 344.635 169.033 345.574C168.978 345.633 168.922 345.692 168.755 345.633C167.42 345.34 164.918 341.815 162.86 338.937C160.857 336.117 158.966 333.474 157.353 332.358C155.74 331.183 153.571 331.066 151.847 332.123C149.511 333.592 148.176 336.235 148.287 339.113C148.399 343.166 152.737 352.095 161.247 365.605C166.586 374.063 172.315 388.396 172.204 399.967C172.204 400.144 172.259 400.32 172.315 400.496L170.424 419.41C160.746 423.581 147.564 423.816 131.156 420.115C120.867 417.765 118.976 414.946 118.809 414.652L131.768 239.197C131.824 238.668 131.435 238.14 130.878 238.14C130.878 238.14 130.878 238.14 130.823 238.14C130.267 238.081 129.822 238.551 129.822 239.08L116.807 415.651V415.886C116.306 419.293 114.804 430.277 115.917 437.678C116.473 441.438 119.143 446.489 128.876 449.015C136.107 450.836 143.504 451.717 150.957 451.717C156.575 451.717 161.803 451.13 165.529 449.779C172.482 447.194 172.259 423.933 172.204 420.291L172.315 419.998L186.331 280.197C186.331 280.08 186.442 279.962 186.554 279.962H186.609C186.72 279.962 186.832 280.021 186.887 280.139V280.197L202.906 423.757C202.961 424.814 203.239 438.207 206.02 446.313C207.133 449.485 209.58 451.834 213.473 453.244C216.143 454.184 218.98 454.654 221.816 454.654C237.779 454.654 251.239 451.423 257.691 446.078C260.361 443.963 261.251 438.383 260.194 429.748ZM164.862 447.958C157.409 450.718 141.446 450.366 129.321 447.135C124.538 445.902 118.586 443.141 117.752 437.443C116.807 431.041 117.919 421.407 118.531 417.237C118.865 417.472 119.143 417.707 119.476 417.942C121.924 419.586 125.706 420.937 130.712 422.053C147.008 425.754 160.301 425.578 170.257 421.583C170.368 431.569 169.033 446.372 164.862 447.958ZM256.356 444.551C254.076 446.43 244.732 452.657 221.65 452.657C219.035 452.657 216.421 452.187 213.974 451.364C210.692 450.131 208.579 448.251 207.689 445.667C205.631 439.558 204.964 429.866 204.797 425.695C205.131 425.871 205.464 426.048 205.854 426.165C208.579 427.223 212.528 427.869 217.589 427.927C234.275 428.221 247.346 425.402 256.356 419.469C258.08 426.4 260.639 441.203 256.356 444.551Z" fill="#1A1A1A"/>
<path d="M149.01 450.718C149.01 450.718 159.299 451.247 158.354 460.234L159.355 450.601L149.01 450.718Z" fill="#1A1A1A"/>
<path d="M158.354 461.292H158.243C157.742 461.233 157.353 460.704 157.353 460.176V460.117C157.631 458.296 157.186 456.416 156.018 454.948C153.626 451.952 148.899 451.717 148.899 451.717C148.398 451.658 147.953 451.247 147.953 450.66C147.953 450.131 148.398 449.661 148.899 449.661L159.244 449.603C159.522 449.603 159.744 449.72 159.967 449.955C160.134 450.19 160.245 450.425 160.245 450.719L159.244 460.293V460.352C159.3 460.881 158.855 461.292 158.354 461.292ZM155.295 451.717C156.129 452.246 156.908 452.892 157.52 453.656C157.687 453.832 157.853 454.067 157.965 454.302L158.243 451.658L155.295 451.717Z" fill="#1A1A1A"/>
<path d="M291.729 159.664C290.45 157.021 288.281 152.674 285.5 147.622C280.828 139.105 273.764 127.416 266.7 119.956C258.524 111.321 240.392 98.6335 233.662 94.8741C232.717 94.3455 232.328 93.112 232.828 92.1134L237.166 83.0087C237.389 82.4801 237.222 81.8927 236.722 81.6577C236.277 81.4228 235.72 81.599 235.498 82.0689L231.16 91.1735C230.214 93.1707 230.993 95.579 232.828 96.6363C236.443 98.6922 243.396 103.274 250.293 108.443C247.512 112.261 244.119 115.55 240.226 118.135C231.104 124.185 220.647 125.654 209.19 122.482C199.067 119.662 191.614 113.201 186.886 103.156C184.884 98.8684 183.549 94.228 182.937 89.4701C185.496 88.7652 187.943 88.1778 190.279 87.5317C197.788 85.5933 203.239 84.2423 205.185 82.6563C208.912 79.6018 215.642 58.2206 216.365 55.8123C216.532 55.2836 216.254 54.6962 215.753 54.52C215.252 54.3438 214.752 54.6375 214.585 55.1661C211.693 64.447 206.52 79.0145 204.017 81.0116C202.404 82.3039 196.564 83.8311 189.834 85.5345C182.27 87.473 172.815 89.8813 164.138 93.2882C145.172 100.631 123.758 117.665 106.739 138.87C104.625 141.513 102.623 143.98 100.787 146.33C90.6645 159.135 84.5463 166.83 78.7619 171.118C77.7607 171.882 76.259 171.94 74.2011 171.529C68.5279 170.237 59.0725 164.246 47.5036 154.671C38.1039 146.859 30.8178 139.575 30.0947 138.4C29.9835 137.989 29.8166 137.167 29.6498 136.227C27.9255 127.475 26.5351 122.775 24.0322 123.128C21.6405 123.48 21.8074 127.71 21.9742 132.174C22.0299 133.349 22.0855 134.758 22.0299 135.639C21.0287 135.111 18.9708 133.701 17.3022 132.526C10.1829 127.592 6.90134 125.595 5.67771 127.533C4.95466 128.649 5.28838 129.942 6.2339 131.351C3.06359 129.237 1.28377 128.708 0.338232 130C-0.885399 131.704 1.22815 134.7 6.40076 139.751C4.17598 138.283 2.84111 137.695 2.00682 137.872C1.6731 137.93 1.33938 138.165 1.11691 138.459C-0.6073 141.22 4.00913 145.273 9.73794 149.678C5.45523 148.503 3.17483 148.151 2.17368 148.738C1.83996 148.915 1.61748 149.267 1.50624 149.678C1.22815 150.912 2.2293 152.204 8.18059 155.141C11.6846 156.844 15.7449 158.548 17.8584 159.429C18.6927 159.781 19.4157 160.251 20.0276 160.956C20.5281 161.544 21.2512 162.366 22.0855 163.306C32.9869 175.817 65.9693 213.763 85.3806 213.763H85.6587C93.3898 213.646 101.733 209.416 110.521 201.252C114.303 197.727 117.807 193.792 120.922 189.621C123.814 192.793 126.928 195.671 130.21 198.373L130.266 198.432C130.321 198.432 130.321 198.491 130.321 198.491C130.321 198.491 130.377 198.55 130.432 198.55C130.488 198.55 130.488 198.608 130.488 198.608C130.488 198.608 130.544 198.667 130.599 198.667H130.822C130.877 198.667 130.933 198.667 130.989 198.608C131.044 198.608 131.044 198.608 131.044 198.55C131.1 198.55 131.156 198.491 131.156 198.491C131.156 198.491 131.211 198.491 131.211 198.432C131.267 198.373 131.267 198.373 131.322 198.373L131.378 198.315L131.434 198.256L135.327 193.615L121.255 237.318C120.699 238.727 120.699 240.313 121.2 241.782C122.201 244.778 124.982 247.362 129.598 249.535C129.709 249.594 129.876 249.653 129.988 249.653C130.154 249.653 130.321 249.594 130.488 249.535C130.766 249.359 130.933 249.066 130.989 248.772L131.656 239.902C139.832 242.193 154.849 248.008 181.714 262.576C192.838 268.567 205.463 270.153 215.642 270.153C217.811 270.153 219.924 270.094 221.815 269.977C228.323 269.566 234.83 268.567 241.227 267.04L241.505 269.683C241.56 270.212 241.95 270.564 242.45 270.623H242.562C246.733 270.212 250.738 268.215 251.683 266.218C251.906 265.983 251.961 265.689 251.961 265.395C251.961 265.336 251.961 265.278 251.906 265.219C251.906 265.16 251.906 265.101 251.85 265.043C251.516 262.341 249.681 246.481 248.402 227.449C247.734 217.464 247.4 208.242 247.289 199.959L265.199 215.76C265.366 215.936 265.588 215.995 265.811 215.995C266.033 215.995 266.256 215.878 266.478 215.701C273.375 208.594 279.382 200.664 284.388 192.029C292.285 178.284 293.732 167.594 293.954 165.773C294.232 165.068 293.898 164.246 291.729 159.664ZM85.5474 211.648C77.7607 211.766 66.3031 204.952 51.5083 191.383C39.4944 180.34 28.6486 167.829 23.4204 161.896C22.5304 160.897 21.863 160.075 21.3624 159.488C20.5838 158.607 19.5826 157.902 18.5258 157.432C10.5166 154.142 5.67771 151.734 4.00913 150.442C5.67771 150.559 9.0705 151.499 10.6835 151.969C11.5734 152.204 12.2408 152.38 12.8526 152.556C13.5757 152.733 14.41 152.909 14.7993 152.145C15.1887 151.323 14.4656 150.735 13.965 150.266C13.5757 149.913 12.9639 149.502 12.2964 149.032C10.461 147.622 7.56877 145.508 5.45523 143.511C3.34169 141.455 2.84111 140.397 2.72987 139.927C4.12036 140.456 7.79125 143.099 9.84918 144.509C13.6869 147.27 14.41 147.74 15.1887 147.505C15.4668 147.387 15.7449 147.152 15.8561 146.859C16.1342 146.095 15.578 145.566 14.7437 144.744C14.1319 144.157 13.2976 143.393 12.3521 142.512C10.1829 140.574 7.56877 138.106 5.39962 135.816C2.72987 132.996 2.11806 131.704 2.00682 131.293C3.73103 131.469 9.6267 136.168 11.9071 138.048C15.0218 140.574 15.3555 140.809 15.9673 140.632C16.2454 140.515 16.5235 140.28 16.6348 139.986C17.0241 138.988 16.2454 138.283 13.5757 135.933C11.9071 134.523 10.3498 132.996 8.84803 131.41C7.51315 129.883 7.3463 129.119 7.3463 128.826C8.79241 128.943 13.6869 132.35 16.3567 134.171C21.2512 137.578 22.2523 138.165 23.1979 137.695C24.199 137.167 24.1434 135.581 24.0322 132.056C23.9766 130.177 23.7541 125.83 24.4215 125.125C24.9777 125.419 26.0901 127.416 27.9255 136.638C28.148 137.813 28.3149 138.576 28.4261 139.046C28.8155 140.456 37.4365 148.562 44.5558 154.612C52.3426 161.25 63.4108 169.767 71.4757 172.704C75.3134 174.114 78.0944 174.114 79.9299 172.704C84.5463 169.297 89.2183 163.893 95.8371 155.728C97.1719 157.843 101.01 164.128 106.238 171.353C107.462 173.057 108.741 174.819 110.187 176.698C110.243 176.816 110.298 176.992 110.354 177.051L110.743 177.579C111.577 178.696 113.58 181.691 113.747 185.451C113.802 189.68 112.745 193.792 110.632 197.375L106.961 201.487C106.905 201.545 106.905 201.545 106.905 201.545C100.843 206.891 93.2786 211.59 85.5474 211.648ZM282.886 190.737C278.102 198.961 272.374 206.597 265.866 213.411L247.345 197.022C247.289 183.806 248.012 172.998 249.458 165.244C249.57 164.716 249.236 164.187 248.735 164.069C248.235 163.952 247.734 164.304 247.623 164.833V164.892C246.455 171.001 245.398 181.163 245.454 197.433V197.61C245.509 205.833 245.788 215.701 246.566 227.332C247.623 243.662 249.18 257.7 249.792 263.104C247.289 262.752 243.285 264.103 241.839 264.632C235.22 266.335 228.49 267.392 221.76 267.804C211.192 268.45 195.785 267.745 182.659 260.579C142.168 238.669 128.152 236.202 123.647 236.319L138.664 189.621L152.068 173.703C152.458 173.291 152.402 172.645 152.068 172.293C151.679 171.882 151.067 171.94 150.734 172.293L150.678 172.352L130.655 196.082C122.034 189.034 113.524 178.167 107.795 170.178C102.066 162.19 97.9506 155.493 97.1719 154.142C98.7849 152.087 100.509 149.972 102.345 147.622C104.18 145.273 106.127 142.806 108.24 140.162C125.037 119.192 146.173 102.393 164.805 95.1678C170.145 93.112 175.762 91.4085 181.046 89.94C181.714 94.8154 183.104 99.5146 185.162 103.92C188.555 111.204 195.396 120.661 208.745 124.361C212.583 125.477 216.532 126.006 220.481 126.006C227.822 126.065 235.053 123.833 241.338 119.721C245.398 117.019 248.958 113.612 251.85 109.559C257.078 113.553 262.084 117.783 265.421 121.307C278.325 134.935 291.229 162.718 292.174 165.185C291.952 166.83 290.506 177.462 282.886 190.737Z" fill="#1A1A1A"/>
<path d="M59.6846 216.699C59.4621 216.699 59.184 216.582 59.0172 216.405L31.0962 188.152C30.7069 187.741 30.7069 187.153 31.0406 186.742C31.3743 186.331 31.9861 186.331 32.3755 186.683L60.2964 214.937C60.6857 215.348 60.6857 215.936 60.352 216.347C60.1852 216.582 59.9071 216.699 59.6846 216.699Z" fill="#1A1A1A"/>
<path d="M282.83 48.0584L282.385 46.8836C282.385 46.8836 282.385 46.8249 282.33 46.8249C279.715 41.0096 278.77 36.8391 277.546 31.5526C277.157 29.9079 276.768 28.2044 276.323 26.266V26.2073C274.376 19.5109 271.373 9.40773 253.686 2.59396C240.448 -2.51638 225.097 -0.0493153 207.911 9.76017C203.127 12.5209 198.344 13.2258 193.728 13.8719C188.388 14.6356 182.826 15.4579 177.542 19.4522C171.869 23.7989 167.753 31.4938 166.641 40.1873C165.417 49.7618 167.864 59.3363 173.371 66.5612C178.321 72.9051 185.552 77.0169 194.339 78.5441C198.288 79.249 202.293 79.3665 206.242 78.8966C206.576 78.8378 206.854 78.6029 207.021 78.3092L215.364 56.5169C215.364 56.4582 215.364 56.4582 215.419 56.4582H215.586C215.975 56.4582 216.309 56.2232 216.476 55.8708C216.698 55.3421 216.42 54.7547 215.975 54.5785C215.92 54.5197 211.637 52.5813 210.914 48.587C210.191 44.5928 211.581 38.1901 215.53 36.7804C216.42 36.4279 217.422 36.3692 218.367 36.5454C218.701 36.6629 219.09 36.8391 219.535 36.9566C219.702 37.0153 219.813 37.1328 219.924 37.2503C221.204 38.2489 221.927 39.8348 221.927 41.4796C221.982 43.4767 222.038 47.6472 226.098 47.8822C229.658 48.0584 231.104 44.1816 232.272 40.1285C233.051 37.544 234.274 36.3692 235.164 35.8993C235.887 35.4881 236.722 35.4294 237.445 35.6056C239.836 36.4279 242.005 37.8964 244.564 39.5999C248.235 42.067 252.462 44.8865 258.413 46.5899C264.198 48.2346 268.425 47.9997 270.594 47.6472C267.646 59.0426 263.641 67.7948 258.58 73.6687C254.909 77.9567 250.682 80.6 246.232 81.4811C246.177 81.4811 246.177 81.4811 246.121 81.5398C245.12 81.7161 244.063 81.8335 243.062 81.8335H242.84C232.383 81.8335 224.263 74.3736 224.207 74.3149C223.818 73.9624 223.206 74.0212 222.872 74.4324C222.539 74.8435 222.594 75.4897 222.983 75.8421C226.599 79.014 230.826 81.3636 235.331 82.7146L233.941 86.1803C233.774 86.5914 233.885 87.0614 234.219 87.3551C244.063 95.3436 252.796 98.868 259.692 98.868C267.424 98.9268 281.217 94.3451 286.112 81.6573C291.062 68.5584 286.501 57.2218 282.83 48.0584Z" fill="#1A1A1A"/>
<path d="M277.603 83.0677C266.423 95.9316 252.463 95.9316 248.625 94.6394C259.415 99.6322 277.38 96.3428 284.11 81.9516C287.336 74.9616 286.724 66.973 285.39 60.9229C284.778 66.9143 283.832 76.0189 277.603 83.0677Z" fill="white"/>
<path d="M254.354 4.94336C254.354 4.94336 255.8 20.2156 274.655 26.3833C272.652 19.687 269.315 11.1697 254.354 4.94336Z" fill="white"/>
<path d="M192.281 20.2746C191.891 19.511 191.168 18.9824 190.334 18.8649C189.444 18.6887 188.499 18.8649 187.72 19.3348C185.94 20.3334 185.161 22.3893 185.94 23.8577C186.496 24.7976 187.497 25.385 188.554 25.3262C189.222 25.3262 189.945 25.15 190.556 24.7976C192.281 23.799 193.059 21.8019 192.281 20.2746Z" fill="white"/>
<path d="M174.039 49.9387C172.537 49.9387 171.369 48.7052 171.313 47.1192C171.091 33.4329 178.989 26.854 179.322 26.5603C180.49 25.5618 182.215 25.7967 183.16 27.0303C184.106 28.2638 183.883 30.0847 182.715 31.0833L182.66 31.142C182.382 31.377 176.541 36.4286 176.764 47.0605C176.764 48.6464 175.596 49.9387 174.094 49.9974L174.039 49.9387Z" fill="white"/>
<path d="M385.115 130.94C383.78 129.765 380.109 130.588 376.272 131.88C382.39 127.298 383.113 125.595 382.946 124.479C382.835 123.774 382.334 123.245 381.667 123.069C379.72 122.482 376.105 123.95 372.656 125.83C375.549 122.658 376.883 120.543 376.605 119.427C376.438 118.84 375.994 118.429 375.493 118.37C371.488 117.547 363.423 123.128 359.641 126.006C360.086 122.717 360.643 117.136 359.753 114.845C359.586 114.199 359.03 113.788 358.418 113.788C356.972 113.788 355.804 116.02 353.523 121.365C353.189 122.129 352.911 122.834 352.745 123.128L352.578 123.48C349.685 128.884 344.346 136.403 342.066 139.516C340.397 141.219 335.892 145.684 334.501 147.152C319.262 163.599 308.026 173.526 303.744 174.349C297.737 175.465 294.066 165.068 294.01 164.95C293.843 164.422 293.232 164.128 292.731 164.363C292.23 164.539 292.008 165.126 292.175 165.655C292.23 165.714 292.342 166.066 292.564 166.654L292.453 166.83L291.118 171.705C291.007 172.117 291.174 172.528 291.452 172.763C291.507 172.821 292.787 173.937 293.009 176.816C293.065 177.579 293.12 178.343 293.12 179.165C293.176 181.632 293.176 184.687 296.179 185.157C296.291 185.157 296.346 185.215 296.458 185.215C297.236 185.215 299.016 184.569 305.635 178.225C309.25 174.76 312.587 171.235 312.643 171.235L312.698 171.177C319.595 165.655 328.494 156.551 335.892 148.562C337.338 147.035 341.843 142.453 343.679 140.691C346.07 137.401 351.41 129.883 354.302 124.42L354.469 124.068C354.636 123.715 354.914 123.069 355.303 122.188C355.859 120.837 357.25 117.606 358.14 116.314C358.696 119.133 357.806 125.653 357.361 128.179C357.25 128.767 357.639 129.295 358.14 129.354C358.418 129.413 358.696 129.354 358.918 129.178C362.033 126.652 370.598 120.367 374.492 120.367C373.491 122.247 368.93 127.004 364.758 130.881C364.369 131.234 364.313 131.88 364.647 132.35C364.981 132.761 365.537 132.82 365.926 132.526C370.32 129.413 377.996 124.772 380.832 125.125C379.831 126.946 373.379 131.821 367.484 135.639C367.039 135.933 366.872 136.579 367.15 137.049C367.428 137.519 367.929 137.636 368.374 137.46C375.493 134.112 382.612 131.88 383.725 132.643V132.761C383.335 134.641 375.771 137.93 368.985 139.927C368.874 139.927 368.819 139.986 368.763 139.986C368.262 140.162 367.929 140.691 368.096 141.278C368.262 141.807 368.763 142.159 369.319 141.983L369.653 141.866C372.489 141.102 378.774 140.926 380.888 141.513C379.219 142.57 375.715 143.275 372.323 143.922C367.595 144.861 362.7 145.86 360.142 148.092C356.805 151.029 354.747 153.085 354.691 153.144C352.077 156.727 348.239 161.896 344.513 167.124C344.457 167.182 344.402 167.241 344.346 167.241C339.229 173.056 333.111 177.814 326.381 181.28C315.146 187.154 311.753 193.322 308.471 199.254C308.193 199.783 307.86 200.37 307.526 200.899L307.415 201.134C303.632 207.948 297.181 219.402 285.167 215.466C285.055 215.466 285 215.408 284.889 215.408C280.773 213.41 277.102 210.473 274.098 206.832C273.765 206.362 273.209 206.303 272.764 206.597C272.319 206.949 272.263 207.536 272.541 208.006L272.597 208.065C272.93 208.535 281.551 219.754 294.789 219.754C301.018 219.754 307.025 217.405 312.698 212.823C317.37 209.064 321.876 203.718 326.492 196.493C332.721 186.743 348.74 164.598 356.249 154.201C356.249 154.201 358.14 152.38 361.421 149.502C363.59 147.622 368.429 146.624 372.712 145.801C376.772 144.979 380.554 144.215 382.445 142.747C383.613 141.807 383.335 140.926 383.168 140.573C382.612 139.457 380.276 139.046 377.606 139.046C381.5 137.401 385.226 135.346 385.671 133.172C385.949 132.291 385.727 131.469 385.115 130.94Z" fill="#1A1A1A"/>
<path d="M294.01 232.207C281.885 232.207 276.156 223.455 276.101 223.338C275.823 222.868 275.934 222.222 276.379 221.928C276.824 221.634 277.436 221.752 277.714 222.222C278.103 222.809 286.502 235.497 305.468 227.684C324.99 219.696 338.284 200.605 338.395 200.429C338.728 199.959 339.285 199.842 339.73 200.194C340.175 200.547 340.286 201.134 339.952 201.604V201.663C339.841 201.839 326.214 221.399 306.135 229.623C302.298 231.267 298.182 232.149 294.01 232.207Z" fill="#1A1A1A"/>
</svg>
