<svg width="118" height="123" viewBox="0 0 118 123" fill="none" xmlns="http://www.w3.org/2000/svg">
<path d="M5.49205 45.2613H2.11159C0.945127 45.2613 0 44.3247 0 43.1688C0 42.0129 0.945127 41.0763 2.11159 41.0763H5.49205V37.7264C5.49205 36.5705 6.43718 35.6339 7.60363 35.6339C8.77009 35.6339 9.71522 36.5705 9.71522 37.7264V41.0763H13.095C14.2615 41.0763 15.2066 42.0129 15.2066 43.1688C15.2066 44.3247 14.2615 45.2613 13.095 45.2613H9.71522V48.6105C9.71522 49.7664 8.77009 50.703 7.60363 50.703C6.43718 50.703 5.49205 49.7664 5.49205 48.6105V45.2613ZM112.633 45.5055C113.935 45.5055 114.991 44.4592 114.991 43.1687C114.991 41.8781 113.935 40.8319 112.633 40.8319C111.33 40.8319 110.274 41.8781 110.274 43.1687C110.274 44.4592 111.33 45.5055 112.633 45.5055ZM74.2836 113.373H70.9031V110.023C70.9031 108.867 69.9573 107.93 68.7915 107.93C67.6257 107.93 66.6799 108.867 66.6799 110.023V113.373H63.2995C62.1337 113.373 61.1879 114.31 61.1879 115.465C61.1879 116.62 62.1337 117.558 63.2995 117.558H66.6799V120.907C66.6799 122.063 67.6257 123 68.7915 123C69.9573 123 70.9031 122.063 70.9031 120.907V117.558H74.2836C75.4493 117.558 76.3952 116.62 76.3952 115.465C76.3952 114.31 75.4493 113.373 74.2836 113.373ZM57.1503 94.1518C57.1503 107.229 46.4157 117.867 33.2197 117.867C20.0236 117.867 9.28837 107.229 9.28837 94.1518C9.28837 92.9965 10.2335 92.0593 11.4 92.0593H55.0394C56.2059 92.0593 57.1503 92.9965 57.1503 94.1518ZM23.7311 96.2443C24.6991 100.555 28.5826 103.79 33.2197 103.79C37.8567 103.79 41.7397 100.555 42.7076 96.2443H23.7311ZM52.8158 96.2443H46.991C45.9681 102.874 40.1917 107.975 33.2197 107.975C26.2476 107.975 20.4708 102.874 19.4476 96.2443H13.6236C14.6807 106.034 23.0659 113.682 33.2197 113.682C43.3734 113.682 51.7586 106.034 52.8158 96.2443ZM11.4 79.3953C6.50591 79.3953 2.52469 75.45 2.52469 70.6002C2.52469 65.7504 6.50591 61.8052 11.4 61.8052C16.2933 61.8052 20.2745 65.7504 20.2745 70.6002C20.2745 75.45 16.2933 79.3953 11.4 79.3953ZM11.4 75.2103C13.9645 75.2103 16.0514 73.1423 16.0514 70.6002C16.0514 68.0581 13.9645 65.9902 11.4 65.9902C8.83471 65.9902 6.74787 68.0581 6.74787 70.6002C6.74787 73.1423 8.83471 75.2103 11.4 75.2103ZM80.3283 28.932C85.2223 28.932 89.2035 32.8772 89.2035 37.7264C89.2035 42.5762 85.2223 46.5214 80.3283 46.5214C75.4342 46.5214 71.453 42.5762 71.453 37.7264C71.453 32.8772 75.4342 28.932 80.3283 28.932ZM80.3283 33.117C77.763 33.117 75.6762 35.185 75.6762 37.7264C75.6762 40.2684 77.763 42.3364 80.3283 42.3364C82.8935 42.3364 84.9803 40.2684 84.9803 37.7264C84.9803 35.185 82.8935 33.117 80.3283 33.117ZM70.613 10.201H73.9935V13.5502C73.9935 14.7061 74.9393 15.6427 76.1051 15.6427C77.2709 15.6427 78.2167 14.7061 78.2167 13.5502V10.201H81.5971C82.7629 10.201 83.7087 9.26437 83.7087 8.10845C83.7087 6.95254 82.7629 6.01595 81.5971 6.01595H78.2167V2.66604C78.2167 1.51012 77.2709 0.573531 76.1051 0.573531C74.9393 0.573531 73.9935 1.51012 73.9935 2.66604V6.01595H70.613C69.4473 6.01595 68.5014 6.95254 68.5014 8.10845C68.5014 9.26437 69.4473 10.201 70.613 10.201ZM118 78.9798C118.003 85.9766 115 92.9638 109.761 98.1461C104.686 103.169 98.1296 105.933 91.3 105.933C91.2642 105.933 91.234 105.933 91.201 105.933C84.3768 105.933 77.8207 103.169 72.7439 98.1447C67.5061 92.9611 64.5037 85.9752 64.5065 78.977C64.5011 65.5925 75.6672 55.4495 90.5804 55.1238C91.5919 52.8017 92.7921 51.8251 93.028 51.6526C93.9656 50.966 95.2881 51.1621 95.9809 52.0912C96.6614 53.0033 96.4827 54.2818 95.5905 54.9786C95.5624 55.004 95.4317 55.132 95.2503 55.3731C108.468 57.0242 118.005 66.6134 118 78.9798ZM113.777 78.9798C113.777 78.9784 113.777 78.9784 113.777 78.977C113.782 68.3105 105.467 60.3667 93.6802 59.3831C93.483 60.4051 93.3511 61.641 93.3367 63.1149C93.9193 63.0509 94.3562 62.9691 94.6213 62.8991C95.0076 62.4768 95.5658 62.2125 96.1858 62.2125C97.3515 62.2125 98.2974 63.1497 98.2974 64.305C98.2974 66.4207 96.0593 67.407 91.2532 67.407C86.4472 67.407 84.2091 66.4207 84.2091 64.305C84.2091 63.1497 85.1549 62.2125 86.3207 62.2125C86.9407 62.2125 87.4989 62.4768 87.8852 62.8991C88.1412 62.9667 88.5577 63.0455 89.1103 63.1085C89.1219 61.699 89.2353 60.4633 89.407 59.3562C77.3208 60.1211 68.7244 68.1337 68.7297 78.977C68.7269 84.8745 71.2784 90.7801 75.727 95.183C80.0066 99.4171 85.5041 101.748 91.2093 101.748C91.223 101.748 91.2354 101.748 91.2491 101.748C91.2629 101.748 91.278 101.748 91.2917 101.748C97.0037 101.748 102.499 99.4185 106.778 95.1844C111.228 90.7814 113.78 84.8745 113.777 78.9798ZM59.0722 16.5493C58.6185 20.2888 55.6951 23.386 51.9621 24.0815C50.9523 24.2688 49.9446 24.2865 48.9686 24.1401L48.8025 28.9082H50.3736C51.8163 28.9082 53.2034 29.513 54.1781 30.5674C55.1528 31.6226 55.6395 33.0448 55.513 34.4691L51.9332 74.7539C51.4885 79.7672 47.323 83.5476 42.2441 83.5476C37.1658 83.5476 33.0004 79.7672 32.555 74.7539L28.9759 34.4691C28.8494 33.0441 29.3361 31.6226 30.3107 30.5674C31.2854 29.513 32.6718 28.9082 34.1153 28.9082H35.6857L35.5196 24.1401C34.5449 24.2865 33.5414 24.2695 32.5351 24.0835C28.8034 23.3929 25.8766 20.2997 25.4181 16.5616C24.8757 12.1348 27.683 8.10028 31.992 7.01452C33.1936 2.92487 37.4291 0 42.2441 0C47.0591 0 51.2946 2.92487 52.4968 7.01452C56.8004 8.09892 59.6083 12.1286 59.0722 16.5493ZM34.1153 33.0932C33.7565 33.0932 33.529 33.2818 33.4252 33.3942C33.3207 33.5066 33.1516 33.7484 33.1826 34.1026L35.2112 56.9356H39.5414C40.7078 56.9356 41.653 57.8722 41.653 59.0281C41.653 60.184 40.7078 61.1206 39.5414 61.1206H35.5831L36.7617 74.3861C37.0139 77.2237 39.3709 79.3626 42.2441 79.3626C45.118 79.3626 47.4749 77.2237 47.7265 74.3861L50.3955 44.352H44.9592C43.7927 44.352 42.8476 43.4154 42.8476 42.2595C42.8476 41.1035 43.7927 40.1669 44.9592 40.1669H50.7674L51.3063 34.1026C51.3379 33.7484 51.1675 33.5066 51.0637 33.3942C50.9599 33.2818 50.7317 33.0932 50.3736 33.0932H34.1153ZM51.2458 11.0217C51.2451 11.0217 51.2451 11.0217 51.2445 11.0217C49.8897 10.7418 48.8119 9.71053 48.4977 8.39522C47.9155 5.95601 45.2857 4.18501 42.2441 4.18501C39.2025 4.18501 36.5726 5.95533 35.9911 8.39522C35.677 9.71053 34.5992 10.7418 33.2444 11.0217C30.8806 11.5101 29.3189 13.6742 29.611 16.0568C29.8454 17.9709 31.4016 19.6165 33.3104 19.9694C34.7126 20.2303 35.8076 19.827 36.4819 19.4428C37.1253 19.0778 37.9123 19.0723 38.5591 19.4299C39.2059 19.7861 39.617 20.453 39.6424 21.1859L39.9114 28.9082H44.5768L44.8458 21.1859C44.8712 20.453 45.2823 19.7861 45.9291 19.4299C46.5772 19.073 47.3657 19.0784 48.0063 19.4428C48.9755 19.9939 50.0732 20.1751 51.1819 19.9687C53.0921 19.6125 54.6469 17.9647 54.8786 16.05C55.1673 13.6701 53.6056 11.5088 51.2458 11.0217Z" fill="#083A9B"/>
</svg>
